<svg width="13" height="13" viewBox="0 0 13 13" fill="none" xmlns="http://www.w3.org/2000/svg">
<path d="M6.5 1.5C3.73858 1.5 1.5 3.73858 1.5 6.5C1.5 9.26142 3.73858 11.5 6.5 11.5C9.26142 11.5 11.5 9.26142 11.5 6.5C11.5 3.73858 9.26142 1.5 6.5 1.5ZM0.25 6.5C0.25 3.04822 3.04822 0.25 6.5 0.25C9.95178 0.25 12.75 3.04822 12.75 6.5C12.75 9.95178 9.95178 12.75 6.5 12.75C3.04822 12.75 0.25 9.95178 0.25 6.5ZM9.41523 4.47037C9.67322 4.69969 9.69645 5.09474 9.46713 5.35273L6.1338 9.10273C6.01519 9.23616 5.84519 9.3125 5.66667 9.3125C5.48814 9.3125 5.31814 9.23616 5.19954 9.10273L3.53287 7.22773C3.30355 6.96974 3.32678 6.57469 3.58477 6.34537C3.84276 6.11605 4.23781 6.13928 4.46713 6.39727L5.66667 7.74675L8.53287 4.52227C8.76219 4.26428 9.15724 4.24105 9.41523 4.47037Z" fill="#8F90A6"/>
</svg>
