<svg width="10" height="8" viewBox="0 0 10 8" fill="none" xmlns="http://www.w3.org/2000/svg">
<path d="M3.14645 0.146447C3.24021 0.0526784 3.36739 0 3.5 0H6.5C6.63261 0 6.75979 0.0526784 6.85355 0.146447L7.70711 1H9C9.55229 1 10 1.44772 10 2V7C10 7.55228 9.55229 8 9 8H1C0.447716 8 0 7.55229 0 7V2C0 1.44772 0.447715 1 1 1H2.29289L3.14645 0.146447ZM3.70711 1L2.85355 1.85355C2.75979 1.94732 2.63261 2 2.5 2L1 2V7H9V2H7.5C7.36739 2 7.24021 1.94732 7.14645 1.85355L6.29289 1H3.70711ZM5 3.25C4.44772 3.25 4 3.69772 4 4.25C4 4.80228 4.44772 5.25 5 5.25C5.55228 5.25 6 4.80228 6 4.25C6 3.69772 5.55228 3.25 5 3.25ZM3 4.25C3 3.14543 3.89543 2.25 5 2.25C6.10457 2.25 7 3.14543 7 4.25C7 5.35457 6.10457 6.25 5 6.25C3.89543 6.25 3 5.35457 3 4.25Z" fill="#2E3A59"/>
</svg>
