<svg width="32" height="32" viewBox="0 0 32 32" fill="none" xmlns="http://www.w3.org/2000/svg">
<path d="M16 5.33366C10.1089 5.33366 5.33329 10.1093 5.33329 16.0003C5.33329 21.8914 10.1089 26.667 16 26.667C21.891 26.667 26.6666 21.8914 26.6666 16.0003C26.6666 10.1093 21.891 5.33366 16 5.33366ZM2.66663 16.0003C2.66663 8.63653 8.63616 2.66699 16 2.66699C23.3638 2.66699 29.3333 8.63653 29.3333 16.0003C29.3333 23.3641 23.3638 29.3337 16 29.3337C8.63616 29.3337 2.66663 23.3641 2.66663 16.0003ZM22.2191 11.6704C22.7695 12.1597 22.8191 13.0024 22.3298 13.5528L15.2187 21.5528C14.9657 21.8375 14.603 22.0003 14.2222 22.0003C13.8413 22.0003 13.4787 21.8375 13.2256 21.5528L9.67008 17.5528C9.18086 17.0024 9.23043 16.1597 9.78081 15.6704C10.3312 15.1812 11.1739 15.2308 11.6632 15.7812L14.2222 18.6601L20.3367 11.7812C20.826 11.2308 21.6687 11.1812 22.2191 11.6704Z" fill="#3AA757"/>
</svg>
