<svg width="20" height="20" viewBox="0 0 20 20" fill="none" xmlns="http://www.w3.org/2000/svg">
<path d="M10 3.33366C6.31811 3.33366 3.33334 6.31843 3.33334 10.0003C3.33334 13.6822 6.31811 16.667 10 16.667C13.6819 16.667 16.6667 13.6822 16.6667 10.0003C16.6667 6.31843 13.6819 3.33366 10 3.33366ZM1.66667 10.0003C1.66667 5.39795 5.39763 1.66699 10 1.66699C14.6024 1.66699 18.3333 5.39795 18.3333 10.0003C18.3333 14.6027 14.6024 18.3337 10 18.3337C5.39763 18.3337 1.66667 14.6027 1.66667 10.0003ZM13.887 7.29415C14.231 7.59992 14.2619 8.12664 13.9562 8.47063L9.51174 13.4706C9.3536 13.6485 9.12693 13.7503 8.88889 13.7503C8.65086 13.7503 8.42419 13.6485 8.26605 13.4706L6.04383 10.9706C5.73807 10.6266 5.76905 10.0999 6.11304 9.79415C6.45702 9.48839 6.98375 9.51937 7.28951 9.86336L8.88889 11.6627L12.7105 7.36336C13.0163 7.01937 13.543 6.98839 13.887 7.29415Z" fill="#C7C9D9"/>
</svg>
