<svg width="13" height="12" viewBox="0 0 13 12" fill="none" xmlns="http://www.w3.org/2000/svg">
<path d="M0.91107 0.41107C1.23651 0.0856329 1.76414 0.0856329 2.08958 0.41107L6.50033 4.82182L10.9111 0.41107C11.2365 0.0856329 11.7641 0.0856329 12.0896 0.41107C12.415 0.736507 12.415 1.26414 12.0896 1.58958L7.67884 6.00033L12.0896 10.4111C12.415 10.7365 12.415 11.2641 12.0896 11.5896C11.7641 11.915 11.2365 11.915 10.9111 11.5896L6.50033 7.17884L2.08958 11.5896C1.76414 11.915 1.23651 11.915 0.91107 11.5896C0.585633 11.2641 0.585633 10.7365 0.91107 10.4111L5.32181 6.00033L0.91107 1.58958C0.585633 1.26414 0.585633 0.736507 0.91107 0.41107Z" fill="#2E3A59"/>
</svg>
