<svg width="467" height="303" viewBox="0 0 467 303" fill="none" xmlns="http://www.w3.org/2000/svg">
<path d="M132.941 233.828C130.832 234.922 128.208 235.469 125.07 235.469C121.008 235.469 117.753 234.186 115.305 231.621C112.857 229.056 111.633 225.69 111.633 221.523C111.633 217.044 113.007 213.424 115.754 210.664C118.514 207.904 121.997 206.523 126.203 206.523C128.911 206.523 131.158 206.908 132.941 207.676V212.285C131.053 211.165 128.97 210.605 126.691 210.605C123.658 210.605 121.197 211.576 119.309 213.516C117.434 215.456 116.496 218.047 116.496 221.289C116.496 224.375 117.375 226.836 119.133 228.672C120.891 230.495 123.202 231.406 126.066 231.406C128.71 231.406 131.001 230.781 132.941 229.531V233.828ZM146.613 235.469C143.527 235.469 141.06 234.538 139.211 232.676C137.375 230.801 136.457 228.32 136.457 225.234C136.457 221.875 137.414 219.251 139.328 217.363C141.255 215.475 143.846 214.531 147.102 214.531C150.227 214.531 152.661 215.449 154.406 217.285C156.151 219.121 157.023 221.667 157.023 224.922C157.023 228.112 156.079 230.671 154.191 232.598C152.316 234.512 149.79 235.469 146.613 235.469ZM146.828 218.145C145.057 218.145 143.658 218.763 142.629 220C141.6 221.237 141.086 222.943 141.086 225.117C141.086 227.214 141.607 228.867 142.648 230.078C143.69 231.276 145.083 231.875 146.828 231.875C148.612 231.875 149.979 231.283 150.93 230.098C151.893 228.913 152.375 227.227 152.375 225.039C152.375 222.839 151.893 221.139 150.93 219.941C149.979 218.743 148.612 218.145 146.828 218.145ZM191.555 235H187.023V224.102C187.023 222.005 186.724 220.488 186.125 219.551C185.539 218.613 184.543 218.145 183.137 218.145C181.952 218.145 180.943 218.737 180.109 219.922C179.289 221.107 178.879 222.526 178.879 224.18V235H174.328V223.73C174.328 220.007 173.013 218.145 170.383 218.145C169.159 218.145 168.15 218.704 167.355 219.824C166.574 220.944 166.184 222.396 166.184 224.18V235H161.652V215H166.184V218.164H166.262C167.707 215.742 169.81 214.531 172.57 214.531C173.951 214.531 175.155 214.915 176.184 215.684C177.225 216.439 177.935 217.435 178.312 218.672C179.797 215.911 182.01 214.531 184.953 214.531C189.354 214.531 191.555 217.246 191.555 222.676V235ZM199.367 210.801C198.625 210.801 197.987 210.56 197.453 210.078C196.932 209.596 196.672 208.984 196.672 208.242C196.672 207.5 196.932 206.882 197.453 206.387C197.987 205.892 198.625 205.645 199.367 205.645C200.135 205.645 200.786 205.892 201.32 206.387C201.854 206.882 202.121 207.5 202.121 208.242C202.121 208.945 201.854 209.551 201.32 210.059C200.786 210.553 200.135 210.801 199.367 210.801ZM201.613 235H197.082V215H201.613V235ZM225.363 235H220.832V223.73C220.832 219.993 219.51 218.125 216.867 218.125C215.487 218.125 214.348 218.646 213.449 219.688C212.551 220.716 212.102 222.018 212.102 223.594V235H207.551V215H212.102V218.32H212.18C213.677 215.794 215.839 214.531 218.664 214.531C220.839 214.531 222.499 215.241 223.645 216.66C224.79 218.066 225.363 220.104 225.363 222.773V235ZM249.113 233.398C249.113 240.742 245.422 244.414 238.039 244.414C235.435 244.414 233.163 243.978 231.223 243.105V238.965C233.41 240.215 235.487 240.84 237.453 240.84C242.206 240.84 244.582 238.503 244.582 233.828V231.641H244.504C243.007 234.193 240.754 235.469 237.746 235.469C235.311 235.469 233.345 234.583 231.848 232.812C230.363 231.029 229.621 228.639 229.621 225.645C229.621 222.246 230.422 219.544 232.023 217.539C233.625 215.534 235.826 214.531 238.625 214.531C241.268 214.531 243.228 215.612 244.504 217.773H244.582V215H249.113V233.398ZM244.621 225.84V223.242C244.621 221.836 244.152 220.638 243.215 219.648C242.29 218.646 241.132 218.145 239.738 218.145C238.02 218.145 236.672 218.783 235.695 220.059C234.732 221.322 234.25 223.092 234.25 225.371C234.25 227.337 234.712 228.913 235.637 230.098C236.574 231.27 237.811 231.855 239.348 231.855C240.91 231.855 242.18 231.296 243.156 230.176C244.133 229.043 244.621 227.598 244.621 225.84ZM265.246 233.887V229.102C265.676 229.492 266.184 229.844 266.77 230.156C267.368 230.469 268 230.736 268.664 230.957C269.328 231.165 269.992 231.328 270.656 231.445C271.32 231.562 271.932 231.621 272.492 231.621C274.445 231.621 275.897 231.296 276.848 230.645C277.811 229.993 278.293 229.049 278.293 227.812C278.293 227.148 278.13 226.576 277.805 226.094C277.492 225.599 277.049 225.15 276.477 224.746C275.904 224.342 275.227 223.958 274.445 223.594C273.677 223.216 272.85 222.826 271.965 222.422C271.014 221.914 270.129 221.4 269.309 220.879C268.488 220.358 267.772 219.785 267.16 219.16C266.561 218.522 266.086 217.806 265.734 217.012C265.396 216.217 265.227 215.286 265.227 214.219C265.227 212.904 265.52 211.764 266.105 210.801C266.704 209.824 267.486 209.023 268.449 208.398C269.426 207.76 270.533 207.292 271.77 206.992C273.007 206.68 274.27 206.523 275.559 206.523C278.488 206.523 280.624 206.855 281.965 207.52V212.109C280.376 210.964 278.332 210.391 275.832 210.391C275.142 210.391 274.452 210.456 273.762 210.586C273.085 210.716 272.473 210.931 271.926 211.23C271.392 211.53 270.956 211.914 270.617 212.383C270.279 212.852 270.109 213.418 270.109 214.082C270.109 214.707 270.24 215.247 270.5 215.703C270.76 216.159 271.138 216.576 271.633 216.953C272.141 217.331 272.753 217.702 273.469 218.066C274.198 218.418 275.038 218.802 275.988 219.219C276.965 219.727 277.883 220.26 278.742 220.82C279.615 221.38 280.376 221.999 281.027 222.676C281.691 223.353 282.212 224.108 282.59 224.941C282.98 225.762 283.176 226.699 283.176 227.754C283.176 229.173 282.889 230.371 282.316 231.348C281.743 232.324 280.969 233.118 279.992 233.73C279.029 234.342 277.915 234.785 276.652 235.059C275.389 235.332 274.055 235.469 272.648 235.469C272.18 235.469 271.6 235.43 270.91 235.352C270.233 235.286 269.536 235.182 268.82 235.039C268.104 234.909 267.427 234.746 266.789 234.551C266.151 234.355 265.637 234.134 265.246 233.887ZM296.691 235.469C293.605 235.469 291.138 234.538 289.289 232.676C287.453 230.801 286.535 228.32 286.535 225.234C286.535 221.875 287.492 219.251 289.406 217.363C291.333 215.475 293.924 214.531 297.18 214.531C300.305 214.531 302.74 215.449 304.484 217.285C306.229 219.121 307.102 221.667 307.102 224.922C307.102 228.112 306.158 230.671 304.27 232.598C302.395 234.512 299.868 235.469 296.691 235.469ZM296.906 218.145C295.135 218.145 293.736 218.763 292.707 220C291.678 221.237 291.164 222.943 291.164 225.117C291.164 227.214 291.685 228.867 292.727 230.078C293.768 231.276 295.161 231.875 296.906 231.875C298.69 231.875 300.057 231.283 301.008 230.098C301.971 228.913 302.453 227.227 302.453 225.039C302.453 222.839 301.971 221.139 301.008 219.941C300.057 218.743 298.69 218.145 296.906 218.145ZM320.598 235.469C317.512 235.469 315.044 234.538 313.195 232.676C311.359 230.801 310.441 228.32 310.441 225.234C310.441 221.875 311.398 219.251 313.312 217.363C315.24 215.475 317.831 214.531 321.086 214.531C324.211 214.531 326.646 215.449 328.391 217.285C330.135 219.121 331.008 221.667 331.008 224.922C331.008 228.112 330.064 230.671 328.176 232.598C326.301 234.512 323.775 235.469 320.598 235.469ZM320.812 218.145C319.042 218.145 317.642 218.763 316.613 220C315.585 221.237 315.07 222.943 315.07 225.117C315.07 227.214 315.591 228.867 316.633 230.078C317.674 231.276 319.068 231.875 320.812 231.875C322.596 231.875 323.964 231.283 324.914 230.098C325.878 228.913 326.359 227.227 326.359 225.039C326.359 222.839 325.878 221.139 324.914 219.941C323.964 218.743 322.596 218.145 320.812 218.145ZM353.449 235H348.918V223.73C348.918 219.993 347.596 218.125 344.953 218.125C343.573 218.125 342.434 218.646 341.535 219.688C340.637 220.716 340.188 222.018 340.188 223.594V235H335.637V215H340.188V218.32H340.266C341.763 215.794 343.924 214.531 346.75 214.531C348.924 214.531 350.585 215.241 351.73 216.66C352.876 218.066 353.449 220.104 353.449 222.773V235Z" fill="#0B84E8"/>
<path d="M86.8125 262.797L83.6484 274H82.1094L79.8047 265.812C79.7057 265.464 79.6458 265.083 79.625 264.672H79.5938C79.5625 265.057 79.4948 265.432 79.3906 265.797L77.0703 274H75.5469L72.2656 262.797H73.7109L76.0938 271.391C76.1927 271.75 76.2552 272.125 76.2812 272.516H76.3203C76.3464 272.24 76.4271 271.865 76.5625 271.391L79.0391 262.797H80.2969L82.6719 271.453C82.7552 271.75 82.8177 272.099 82.8594 272.5H82.8906C82.9115 272.229 82.9818 271.87 83.1016 271.422L85.3906 262.797H86.8125ZM94.1172 270.32H88.4688C88.4896 271.211 88.7292 271.898 89.1875 272.383C89.6458 272.867 90.276 273.109 91.0781 273.109C91.9792 273.109 92.8073 272.812 93.5625 272.219V273.422C92.8594 273.932 91.9297 274.188 90.7734 274.188C89.6432 274.188 88.7552 273.826 88.1094 273.102C87.4635 272.372 87.1406 271.349 87.1406 270.031C87.1406 268.786 87.4922 267.773 88.1953 266.992C88.9036 266.206 89.7812 265.812 90.8281 265.812C91.875 265.812 92.6849 266.151 93.2578 266.828C93.8307 267.505 94.1172 268.445 94.1172 269.648V270.32ZM92.8047 269.234C92.7995 268.495 92.6198 267.919 92.2656 267.508C91.9167 267.096 91.4297 266.891 90.8047 266.891C90.2005 266.891 89.6875 267.107 89.2656 267.539C88.8438 267.971 88.5833 268.536 88.4844 269.234H92.8047ZM106.18 274H104.898V272.75H104.867C104.31 273.708 103.49 274.188 102.406 274.188C101.609 274.188 100.984 273.977 100.531 273.555C100.083 273.133 99.8594 272.573 99.8594 271.875C99.8594 270.38 100.74 269.51 102.5 269.266L104.898 268.93C104.898 267.57 104.349 266.891 103.25 266.891C102.286 266.891 101.417 267.219 100.641 267.875V266.562C101.427 266.062 102.333 265.812 103.359 265.812C105.24 265.812 106.18 266.807 106.18 268.797V274ZM104.898 269.953L102.969 270.219C102.375 270.302 101.927 270.451 101.625 270.664C101.323 270.872 101.172 271.245 101.172 271.781C101.172 272.172 101.31 272.492 101.586 272.742C101.867 272.987 102.24 273.109 102.703 273.109C103.339 273.109 103.862 272.888 104.273 272.445C104.69 271.997 104.898 271.432 104.898 270.75V269.953ZM112.766 267.297C112.542 267.125 112.219 267.039 111.797 267.039C111.25 267.039 110.792 267.297 110.422 267.812C110.057 268.328 109.875 269.031 109.875 269.922V274H108.594V266H109.875V267.648H109.906C110.089 267.086 110.367 266.648 110.742 266.336C111.117 266.018 111.536 265.859 112 265.859C112.333 265.859 112.589 265.896 112.766 265.969V267.297ZM120.586 270.32H114.938C114.958 271.211 115.198 271.898 115.656 272.383C116.115 272.867 116.745 273.109 117.547 273.109C118.448 273.109 119.276 272.812 120.031 272.219V273.422C119.328 273.932 118.398 274.188 117.242 274.188C116.112 274.188 115.224 273.826 114.578 273.102C113.932 272.372 113.609 271.349 113.609 270.031C113.609 268.786 113.961 267.773 114.664 266.992C115.372 266.206 116.25 265.812 117.297 265.812C118.344 265.812 119.154 266.151 119.727 266.828C120.299 267.505 120.586 268.445 120.586 269.648V270.32ZM119.273 269.234C119.268 268.495 119.089 267.919 118.734 267.508C118.385 267.096 117.898 266.891 117.273 266.891C116.669 266.891 116.156 267.107 115.734 267.539C115.312 267.971 115.052 268.536 114.953 269.234H119.273ZM137 266L134.602 274H133.273L131.625 268.273C131.562 268.055 131.521 267.807 131.5 267.531H131.469C131.453 267.719 131.398 267.961 131.305 268.258L129.516 274H128.234L125.812 266H127.156L128.812 272.016C128.865 272.198 128.901 272.438 128.922 272.734H128.984C129 272.505 129.047 272.26 129.125 272L130.969 266H132.141L133.797 272.031C133.849 272.224 133.888 272.464 133.914 272.75H133.977C133.987 272.547 134.031 272.307 134.109 272.031L135.734 266H137ZM141.828 274.188C140.646 274.188 139.701 273.815 138.992 273.07C138.289 272.32 137.938 271.328 137.938 270.094C137.938 268.75 138.305 267.701 139.039 266.945C139.773 266.19 140.766 265.812 142.016 265.812C143.208 265.812 144.138 266.18 144.805 266.914C145.477 267.648 145.812 268.667 145.812 269.969C145.812 271.245 145.451 272.268 144.727 273.039C144.008 273.805 143.042 274.188 141.828 274.188ZM141.922 266.891C141.099 266.891 140.448 267.172 139.969 267.734C139.49 268.292 139.25 269.062 139.25 270.047C139.25 270.995 139.492 271.742 139.977 272.289C140.461 272.836 141.109 273.109 141.922 273.109C142.75 273.109 143.385 272.841 143.828 272.305C144.276 271.768 144.5 271.005 144.5 270.016C144.5 269.016 144.276 268.245 143.828 267.703C143.385 267.161 142.75 266.891 141.922 266.891ZM152.031 267.297C151.807 267.125 151.484 267.039 151.062 267.039C150.516 267.039 150.057 267.297 149.688 267.812C149.323 268.328 149.141 269.031 149.141 269.922V274H147.859V266H149.141V267.648H149.172C149.354 267.086 149.633 266.648 150.008 266.336C150.383 266.018 150.802 265.859 151.266 265.859C151.599 265.859 151.854 265.896 152.031 265.969V267.297ZM160.062 274H158.266L154.734 270.156H154.703V274H153.422V262.156H154.703V269.664H154.734L158.094 266H159.773L156.062 269.859L160.062 274ZM162.031 263.969C161.802 263.969 161.607 263.891 161.445 263.734C161.284 263.578 161.203 263.38 161.203 263.141C161.203 262.901 161.284 262.703 161.445 262.547C161.607 262.385 161.802 262.305 162.031 262.305C162.266 262.305 162.464 262.385 162.625 262.547C162.792 262.703 162.875 262.901 162.875 263.141C162.875 263.37 162.792 263.565 162.625 263.727C162.464 263.888 162.266 263.969 162.031 263.969ZM162.656 274H161.375V266H162.656V274ZM171.891 274H170.609V269.438C170.609 267.74 169.99 266.891 168.75 266.891C168.109 266.891 167.578 267.133 167.156 267.617C166.74 268.096 166.531 268.703 166.531 269.438V274H165.25V266H166.531V267.328H166.562C167.167 266.318 168.042 265.812 169.188 265.812C170.062 265.812 170.732 266.096 171.195 266.664C171.659 267.227 171.891 268.042 171.891 269.109V274ZM181.141 273.359C181.141 276.297 179.734 277.766 176.922 277.766C175.932 277.766 175.068 277.578 174.328 277.203V275.922C175.229 276.422 176.089 276.672 176.906 276.672C178.875 276.672 179.859 275.625 179.859 273.531V272.656H179.828C179.219 273.677 178.302 274.188 177.078 274.188C176.083 274.188 175.281 273.833 174.672 273.125C174.068 272.411 173.766 271.456 173.766 270.258C173.766 268.898 174.091 267.818 174.742 267.016C175.398 266.214 176.294 265.812 177.43 265.812C178.508 265.812 179.307 266.245 179.828 267.109H179.859V266H181.141V273.359ZM179.859 270.383V269.203C179.859 268.568 179.643 268.023 179.211 267.57C178.784 267.117 178.25 266.891 177.609 266.891C176.818 266.891 176.198 267.18 175.75 267.758C175.302 268.331 175.078 269.135 175.078 270.172C175.078 271.062 175.292 271.776 175.719 272.312C176.151 272.844 176.721 273.109 177.43 273.109C178.148 273.109 178.732 272.854 179.18 272.344C179.633 271.833 179.859 271.18 179.859 270.383ZM194.766 274H193.484V269.391C193.484 267.724 192.865 266.891 191.625 266.891C191 266.891 190.474 267.133 190.047 267.617C189.62 268.096 189.406 268.714 189.406 269.469V274H188.125V262.156H189.406V267.328H189.438C190.052 266.318 190.927 265.812 192.062 265.812C193.865 265.812 194.766 266.898 194.766 269.07V274ZM202.914 274H201.633V272.75H201.602C201.044 273.708 200.224 274.188 199.141 274.188C198.344 274.188 197.719 273.977 197.266 273.555C196.818 273.133 196.594 272.573 196.594 271.875C196.594 270.38 197.474 269.51 199.234 269.266L201.633 268.93C201.633 267.57 201.083 266.891 199.984 266.891C199.021 266.891 198.151 267.219 197.375 267.875V266.562C198.161 266.062 199.068 265.812 200.094 265.812C201.974 265.812 202.914 266.807 202.914 268.797V274ZM201.633 269.953L199.703 270.219C199.109 270.302 198.661 270.451 198.359 270.664C198.057 270.872 197.906 271.245 197.906 271.781C197.906 272.172 198.044 272.492 198.32 272.742C198.602 272.987 198.974 273.109 199.438 273.109C200.073 273.109 200.596 272.888 201.008 272.445C201.424 271.997 201.633 271.432 201.633 270.75V269.953ZM209.5 267.297C209.276 267.125 208.953 267.039 208.531 267.039C207.984 267.039 207.526 267.297 207.156 267.812C206.792 268.328 206.609 269.031 206.609 269.922V274H205.328V266H206.609V267.648H206.641C206.823 267.086 207.102 266.648 207.477 266.336C207.852 266.018 208.271 265.859 208.734 265.859C209.068 265.859 209.323 265.896 209.5 265.969V267.297ZM217.719 274H216.438V272.641H216.406C215.812 273.672 214.896 274.188 213.656 274.188C212.651 274.188 211.846 273.831 211.242 273.117C210.643 272.398 210.344 271.422 210.344 270.188C210.344 268.865 210.677 267.805 211.344 267.008C212.01 266.211 212.898 265.812 214.008 265.812C215.107 265.812 215.906 266.245 216.406 267.109H216.438V262.156H217.719V274ZM216.438 270.383V269.203C216.438 268.557 216.224 268.01 215.797 267.562C215.37 267.115 214.828 266.891 214.172 266.891C213.391 266.891 212.776 267.177 212.328 267.75C211.88 268.323 211.656 269.115 211.656 270.125C211.656 271.047 211.87 271.776 212.297 272.312C212.729 272.844 213.307 273.109 214.031 273.109C214.745 273.109 215.323 272.852 215.766 272.336C216.214 271.82 216.438 271.169 216.438 270.383ZM228.047 274.188C226.865 274.188 225.919 273.815 225.211 273.07C224.508 272.32 224.156 271.328 224.156 270.094C224.156 268.75 224.523 267.701 225.258 266.945C225.992 266.19 226.984 265.812 228.234 265.812C229.427 265.812 230.357 266.18 231.023 266.914C231.695 267.648 232.031 268.667 232.031 269.969C232.031 271.245 231.669 272.268 230.945 273.039C230.227 273.805 229.26 274.188 228.047 274.188ZM228.141 266.891C227.318 266.891 226.667 267.172 226.188 267.734C225.708 268.292 225.469 269.062 225.469 270.047C225.469 270.995 225.711 271.742 226.195 272.289C226.68 272.836 227.328 273.109 228.141 273.109C228.969 273.109 229.604 272.841 230.047 272.305C230.495 271.768 230.719 271.005 230.719 270.016C230.719 269.016 230.495 268.245 230.047 267.703C229.604 267.161 228.969 266.891 228.141 266.891ZM240.719 274H239.438V269.438C239.438 267.74 238.818 266.891 237.578 266.891C236.938 266.891 236.406 267.133 235.984 267.617C235.568 268.096 235.359 268.703 235.359 269.438V274H234.078V266H235.359V267.328H235.391C235.995 266.318 236.87 265.812 238.016 265.812C238.891 265.812 239.56 266.096 240.023 266.664C240.487 267.227 240.719 268.042 240.719 269.109V274ZM251.242 273.922C250.94 274.089 250.542 274.172 250.047 274.172C248.646 274.172 247.945 273.391 247.945 271.828V267.094H246.57V266H247.945V264.047L249.227 263.633V266H251.242V267.094H249.227V271.602C249.227 272.138 249.318 272.521 249.5 272.75C249.682 272.979 249.984 273.094 250.406 273.094C250.729 273.094 251.008 273.005 251.242 272.828V273.922ZM259.594 274H258.312V269.391C258.312 267.724 257.693 266.891 256.453 266.891C255.828 266.891 255.302 267.133 254.875 267.617C254.448 268.096 254.234 268.714 254.234 269.469V274H252.953V262.156H254.234V267.328H254.266C254.88 266.318 255.755 265.812 256.891 265.812C258.693 265.812 259.594 266.898 259.594 269.07V274ZM262.672 263.969C262.443 263.969 262.247 263.891 262.086 263.734C261.924 263.578 261.844 263.38 261.844 263.141C261.844 262.901 261.924 262.703 262.086 262.547C262.247 262.385 262.443 262.305 262.672 262.305C262.906 262.305 263.104 262.385 263.266 262.547C263.432 262.703 263.516 262.901 263.516 263.141C263.516 263.37 263.432 263.565 263.266 263.727C263.104 263.888 262.906 263.969 262.672 263.969ZM263.297 274H262.016V266H263.297V274ZM265.406 273.711V272.336C266.104 272.852 266.872 273.109 267.711 273.109C268.836 273.109 269.398 272.734 269.398 271.984C269.398 271.771 269.349 271.591 269.25 271.445C269.156 271.294 269.026 271.161 268.859 271.047C268.698 270.932 268.505 270.831 268.281 270.742C268.062 270.648 267.826 270.552 267.57 270.453C267.216 270.312 266.904 270.172 266.633 270.031C266.367 269.885 266.143 269.724 265.961 269.547C265.784 269.365 265.648 269.159 265.555 268.93C265.466 268.701 265.422 268.432 265.422 268.125C265.422 267.75 265.508 267.419 265.68 267.133C265.852 266.841 266.081 266.599 266.367 266.406C266.654 266.208 266.979 266.06 267.344 265.961C267.714 265.862 268.094 265.812 268.484 265.812C269.177 265.812 269.797 265.932 270.344 266.172V267.469C269.755 267.083 269.078 266.891 268.312 266.891C268.073 266.891 267.857 266.919 267.664 266.977C267.471 267.029 267.305 267.104 267.164 267.203C267.029 267.302 266.922 267.422 266.844 267.562C266.771 267.698 266.734 267.849 266.734 268.016C266.734 268.224 266.771 268.398 266.844 268.539C266.922 268.68 267.034 268.805 267.18 268.914C267.326 269.023 267.503 269.122 267.711 269.211C267.919 269.299 268.156 269.396 268.422 269.5C268.776 269.635 269.094 269.776 269.375 269.922C269.656 270.062 269.896 270.224 270.094 270.406C270.292 270.583 270.443 270.789 270.547 271.023C270.656 271.258 270.711 271.536 270.711 271.859C270.711 272.255 270.622 272.599 270.445 272.891C270.273 273.182 270.042 273.424 269.75 273.617C269.458 273.81 269.122 273.953 268.742 274.047C268.362 274.141 267.964 274.188 267.547 274.188C266.724 274.188 266.01 274.029 265.406 273.711ZM283.719 274H282.438V269.438C282.438 267.74 281.818 266.891 280.578 266.891C279.938 266.891 279.406 267.133 278.984 267.617C278.568 268.096 278.359 268.703 278.359 269.438V274H277.078V266H278.359V267.328H278.391C278.995 266.318 279.87 265.812 281.016 265.812C281.891 265.812 282.56 266.096 283.023 266.664C283.487 267.227 283.719 268.042 283.719 269.109V274ZM292.57 270.32H286.922C286.943 271.211 287.182 271.898 287.641 272.383C288.099 272.867 288.729 273.109 289.531 273.109C290.432 273.109 291.26 272.812 292.016 272.219V273.422C291.312 273.932 290.383 274.188 289.227 274.188C288.096 274.188 287.208 273.826 286.562 273.102C285.917 272.372 285.594 271.349 285.594 270.031C285.594 268.786 285.945 267.773 286.648 266.992C287.357 266.206 288.234 265.812 289.281 265.812C290.328 265.812 291.138 266.151 291.711 266.828C292.284 267.505 292.57 268.445 292.57 269.648V270.32ZM291.258 269.234C291.253 268.495 291.073 267.919 290.719 267.508C290.37 267.096 289.883 266.891 289.258 266.891C288.654 266.891 288.141 267.107 287.719 267.539C287.297 267.971 287.036 268.536 286.938 269.234H291.258ZM304.594 266L302.195 274H300.867L299.219 268.273C299.156 268.055 299.115 267.807 299.094 267.531H299.062C299.047 267.719 298.992 267.961 298.898 268.258L297.109 274H295.828L293.406 266H294.75L296.406 272.016C296.458 272.198 296.495 272.438 296.516 272.734H296.578C296.594 272.505 296.641 272.26 296.719 272L298.562 266H299.734L301.391 272.031C301.443 272.224 301.482 272.464 301.508 272.75H301.57C301.581 272.547 301.625 272.307 301.703 272.031L303.328 266H304.594ZM316.195 274H314.914V272.75H314.883C314.326 273.708 313.505 274.188 312.422 274.188C311.625 274.188 311 273.977 310.547 273.555C310.099 273.133 309.875 272.573 309.875 271.875C309.875 270.38 310.755 269.51 312.516 269.266L314.914 268.93C314.914 267.57 314.365 266.891 313.266 266.891C312.302 266.891 311.432 267.219 310.656 267.875V266.562C311.443 266.062 312.349 265.812 313.375 265.812C315.255 265.812 316.195 266.807 316.195 268.797V274ZM314.914 269.953L312.984 270.219C312.391 270.302 311.943 270.451 311.641 270.664C311.339 270.872 311.188 271.245 311.188 271.781C311.188 272.172 311.326 272.492 311.602 272.742C311.883 272.987 312.255 273.109 312.719 273.109C313.354 273.109 313.878 272.888 314.289 272.445C314.706 271.997 314.914 271.432 314.914 270.75V269.953ZM319.922 272.844H319.891V277.68H318.609V266H319.891V267.406H319.922C320.552 266.344 321.474 265.812 322.688 265.812C323.719 265.812 324.523 266.172 325.102 266.891C325.68 267.604 325.969 268.562 325.969 269.766C325.969 271.104 325.643 272.177 324.992 272.984C324.341 273.786 323.451 274.188 322.32 274.188C321.284 274.188 320.484 273.74 319.922 272.844ZM319.891 269.617V270.734C319.891 271.396 320.104 271.958 320.531 272.422C320.964 272.88 321.51 273.109 322.172 273.109C322.948 273.109 323.555 272.812 323.992 272.219C324.435 271.625 324.656 270.799 324.656 269.742C324.656 268.852 324.451 268.154 324.039 267.648C323.628 267.143 323.07 266.891 322.367 266.891C321.622 266.891 321.023 267.151 320.57 267.672C320.117 268.188 319.891 268.836 319.891 269.617ZM329.328 272.844H329.297V277.68H328.016V266H329.297V267.406H329.328C329.958 266.344 330.88 265.812 332.094 265.812C333.125 265.812 333.93 266.172 334.508 266.891C335.086 267.604 335.375 268.562 335.375 269.766C335.375 271.104 335.049 272.177 334.398 272.984C333.747 273.786 332.857 274.188 331.727 274.188C330.69 274.188 329.891 273.74 329.328 272.844ZM329.297 269.617V270.734C329.297 271.396 329.51 271.958 329.938 272.422C330.37 272.88 330.917 273.109 331.578 273.109C332.354 273.109 332.961 272.812 333.398 272.219C333.841 271.625 334.062 270.799 334.062 269.742C334.062 268.852 333.857 268.154 333.445 267.648C333.034 267.143 332.477 266.891 331.773 266.891C331.029 266.891 330.43 267.151 329.977 267.672C329.523 268.188 329.297 268.836 329.297 269.617ZM345.766 263.281C345.516 263.141 345.232 263.07 344.914 263.07C344.018 263.07 343.57 263.635 343.57 264.766V266H345.445V267.094H343.57V274H342.297V267.094H340.93V266H342.297V264.703C342.297 263.865 342.539 263.203 343.023 262.719C343.508 262.229 344.112 261.984 344.836 261.984C345.227 261.984 345.536 262.031 345.766 262.125V263.281ZM353.258 270.32H347.609C347.63 271.211 347.87 271.898 348.328 272.383C348.786 272.867 349.417 273.109 350.219 273.109C351.12 273.109 351.948 272.812 352.703 272.219V273.422C352 273.932 351.07 274.188 349.914 274.188C348.784 274.188 347.896 273.826 347.25 273.102C346.604 272.372 346.281 271.349 346.281 270.031C346.281 268.786 346.633 267.773 347.336 266.992C348.044 266.206 348.922 265.812 349.969 265.812C351.016 265.812 351.826 266.151 352.398 266.828C352.971 267.505 353.258 268.445 353.258 269.648V270.32ZM351.945 269.234C351.94 268.495 351.76 267.919 351.406 267.508C351.057 267.096 350.57 266.891 349.945 266.891C349.341 266.891 348.828 267.107 348.406 267.539C347.984 267.971 347.724 268.536 347.625 269.234H351.945ZM360.93 274H359.648V272.75H359.617C359.06 273.708 358.24 274.188 357.156 274.188C356.359 274.188 355.734 273.977 355.281 273.555C354.833 273.133 354.609 272.573 354.609 271.875C354.609 270.38 355.49 269.51 357.25 269.266L359.648 268.93C359.648 267.57 359.099 266.891 358 266.891C357.036 266.891 356.167 267.219 355.391 267.875V266.562C356.177 266.062 357.083 265.812 358.109 265.812C359.99 265.812 360.93 266.807 360.93 268.797V274ZM359.648 269.953L357.719 270.219C357.125 270.302 356.677 270.451 356.375 270.664C356.073 270.872 355.922 271.245 355.922 271.781C355.922 272.172 356.06 272.492 356.336 272.742C356.617 272.987 356.99 273.109 357.453 273.109C358.089 273.109 358.612 272.888 359.023 272.445C359.44 271.997 359.648 271.432 359.648 270.75V269.953ZM367.055 273.922C366.753 274.089 366.354 274.172 365.859 274.172C364.458 274.172 363.758 273.391 363.758 271.828V267.094H362.383V266H363.758V264.047L365.039 263.633V266H367.055V267.094H365.039V271.602C365.039 272.138 365.13 272.521 365.312 272.75C365.495 272.979 365.797 273.094 366.219 273.094C366.542 273.094 366.82 273.005 367.055 272.828V273.922ZM375.234 274H373.953V272.734H373.922C373.391 273.703 372.568 274.188 371.453 274.188C369.547 274.188 368.594 273.052 368.594 270.781V266H369.867V270.578C369.867 272.266 370.513 273.109 371.805 273.109C372.43 273.109 372.943 272.88 373.344 272.422C373.75 271.958 373.953 271.354 373.953 270.609V266H375.234V274ZM382 267.297C381.776 267.125 381.453 267.039 381.031 267.039C380.484 267.039 380.026 267.297 379.656 267.812C379.292 268.328 379.109 269.031 379.109 269.922V274H377.828V266H379.109V267.648H379.141C379.323 267.086 379.602 266.648 379.977 266.336C380.352 266.018 380.771 265.859 381.234 265.859C381.568 265.859 381.823 265.896 382 265.969V267.297ZM389.82 270.32H384.172C384.193 271.211 384.432 271.898 384.891 272.383C385.349 272.867 385.979 273.109 386.781 273.109C387.682 273.109 388.51 272.812 389.266 272.219V273.422C388.562 273.932 387.633 274.188 386.477 274.188C385.346 274.188 384.458 273.826 383.812 273.102C383.167 272.372 382.844 271.349 382.844 270.031C382.844 268.786 383.195 267.773 383.898 266.992C384.607 266.206 385.484 265.812 386.531 265.812C387.578 265.812 388.388 266.151 388.961 266.828C389.534 267.505 389.82 268.445 389.82 269.648V270.32ZM388.508 269.234C388.503 268.495 388.323 267.919 387.969 267.508C387.62 267.096 387.133 266.891 386.508 266.891C385.904 266.891 385.391 267.107 384.969 267.539C384.547 267.971 384.286 268.536 384.188 269.234H388.508ZM392.211 274.172C391.971 274.172 391.766 274.086 391.594 273.914C391.427 273.742 391.344 273.536 391.344 273.297C391.344 273.057 391.427 272.852 391.594 272.68C391.766 272.503 391.971 272.414 392.211 272.414C392.456 272.414 392.664 272.503 392.836 272.68C393.008 272.852 393.094 273.057 393.094 273.297C393.094 273.536 393.008 273.742 392.836 273.914C392.664 274.086 392.456 274.172 392.211 274.172ZM122.078 287.984H118.844V298H117.531V287.984H114.305V286.797H122.078V287.984ZM130.312 298H129.031V293.391C129.031 291.724 128.411 290.891 127.172 290.891C126.547 290.891 126.021 291.133 125.594 291.617C125.167 292.096 124.953 292.714 124.953 293.469V298H123.672V286.156H124.953V291.328H124.984C125.599 290.318 126.474 289.812 127.609 289.812C129.411 289.812 130.312 290.898 130.312 293.07V298ZM139.164 294.32H133.516C133.536 295.211 133.776 295.898 134.234 296.383C134.693 296.867 135.323 297.109 136.125 297.109C137.026 297.109 137.854 296.812 138.609 296.219V297.422C137.906 297.932 136.977 298.188 135.82 298.188C134.69 298.188 133.802 297.826 133.156 297.102C132.51 296.372 132.188 295.349 132.188 294.031C132.188 292.786 132.539 291.773 133.242 290.992C133.951 290.206 134.828 289.812 135.875 289.812C136.922 289.812 137.732 290.151 138.305 290.828C138.878 291.505 139.164 292.445 139.164 293.648V294.32ZM137.852 293.234C137.846 292.495 137.667 291.919 137.312 291.508C136.964 291.096 136.477 290.891 135.852 290.891C135.247 290.891 134.734 291.107 134.312 291.539C133.891 291.971 133.63 292.536 133.531 293.234H137.852ZM151.969 298H150.688V296.734H150.656C150.125 297.703 149.302 298.188 148.188 298.188C146.281 298.188 145.328 297.052 145.328 294.781V290H146.602V294.578C146.602 296.266 147.247 297.109 148.539 297.109C149.164 297.109 149.677 296.88 150.078 296.422C150.484 295.958 150.688 295.354 150.688 294.609V290H151.969V298ZM155.875 296.844H155.844V301.68H154.562V290H155.844V291.406H155.875C156.505 290.344 157.427 289.812 158.641 289.812C159.672 289.812 160.477 290.172 161.055 290.891C161.633 291.604 161.922 292.562 161.922 293.766C161.922 295.104 161.596 296.177 160.945 296.984C160.294 297.786 159.404 298.188 158.273 298.188C157.237 298.188 156.438 297.74 155.875 296.844ZM155.844 293.617V294.734C155.844 295.396 156.057 295.958 156.484 296.422C156.917 296.88 157.464 297.109 158.125 297.109C158.901 297.109 159.508 296.812 159.945 296.219C160.388 295.625 160.609 294.799 160.609 293.742C160.609 292.852 160.404 292.154 159.992 291.648C159.581 291.143 159.023 290.891 158.32 290.891C157.576 290.891 156.977 291.151 156.523 291.672C156.07 292.188 155.844 292.836 155.844 293.617ZM170.797 298H169.516V296.641H169.484C168.891 297.672 167.974 298.188 166.734 298.188C165.729 298.188 164.924 297.831 164.32 297.117C163.721 296.398 163.422 295.422 163.422 294.188C163.422 292.865 163.755 291.805 164.422 291.008C165.089 290.211 165.977 289.812 167.086 289.812C168.185 289.812 168.984 290.245 169.484 291.109H169.516V286.156H170.797V298ZM169.516 294.383V293.203C169.516 292.557 169.302 292.01 168.875 291.562C168.448 291.115 167.906 290.891 167.25 290.891C166.469 290.891 165.854 291.177 165.406 291.75C164.958 292.323 164.734 293.115 164.734 294.125C164.734 295.047 164.948 295.776 165.375 296.312C165.807 296.844 166.385 297.109 167.109 297.109C167.823 297.109 168.401 296.852 168.844 296.336C169.292 295.82 169.516 295.169 169.516 294.383ZM179.117 298H177.836V296.75H177.805C177.247 297.708 176.427 298.188 175.344 298.188C174.547 298.188 173.922 297.977 173.469 297.555C173.021 297.133 172.797 296.573 172.797 295.875C172.797 294.38 173.677 293.51 175.438 293.266L177.836 292.93C177.836 291.57 177.286 290.891 176.188 290.891C175.224 290.891 174.354 291.219 173.578 291.875V290.562C174.365 290.062 175.271 289.812 176.297 289.812C178.177 289.812 179.117 290.807 179.117 292.797V298ZM177.836 293.953L175.906 294.219C175.312 294.302 174.865 294.451 174.562 294.664C174.26 294.872 174.109 295.245 174.109 295.781C174.109 296.172 174.247 296.492 174.523 296.742C174.805 296.987 175.177 297.109 175.641 297.109C176.276 297.109 176.799 296.888 177.211 296.445C177.628 295.997 177.836 295.432 177.836 294.75V293.953ZM185.242 297.922C184.94 298.089 184.542 298.172 184.047 298.172C182.646 298.172 181.945 297.391 181.945 295.828V291.094H180.57V290H181.945V288.047L183.227 287.633V290H185.242V291.094H183.227V295.602C183.227 296.138 183.318 296.521 183.5 296.75C183.682 296.979 183.984 297.094 184.406 297.094C184.729 297.094 185.008 297.005 185.242 296.828V297.922ZM193.383 294.32H187.734C187.755 295.211 187.995 295.898 188.453 296.383C188.911 296.867 189.542 297.109 190.344 297.109C191.245 297.109 192.073 296.812 192.828 296.219V297.422C192.125 297.932 191.195 298.188 190.039 298.188C188.909 298.188 188.021 297.826 187.375 297.102C186.729 296.372 186.406 295.349 186.406 294.031C186.406 292.786 186.758 291.773 187.461 290.992C188.169 290.206 189.047 289.812 190.094 289.812C191.141 289.812 191.951 290.151 192.523 290.828C193.096 291.505 193.383 292.445 193.383 293.648V294.32ZM192.07 293.234C192.065 292.495 191.885 291.919 191.531 291.508C191.182 291.096 190.695 290.891 190.07 290.891C189.466 290.891 188.953 291.107 188.531 291.539C188.109 291.971 187.849 292.536 187.75 293.234H192.07ZM205.445 298H204.164V296.75H204.133C203.576 297.708 202.755 298.188 201.672 298.188C200.875 298.188 200.25 297.977 199.797 297.555C199.349 297.133 199.125 296.573 199.125 295.875C199.125 294.38 200.005 293.51 201.766 293.266L204.164 292.93C204.164 291.57 203.615 290.891 202.516 290.891C201.552 290.891 200.682 291.219 199.906 291.875V290.562C200.693 290.062 201.599 289.812 202.625 289.812C204.505 289.812 205.445 290.807 205.445 292.797V298ZM204.164 293.953L202.234 294.219C201.641 294.302 201.193 294.451 200.891 294.664C200.589 294.872 200.438 295.245 200.438 295.781C200.438 296.172 200.576 296.492 200.852 296.742C201.133 296.987 201.505 297.109 201.969 297.109C202.604 297.109 203.128 296.888 203.539 296.445C203.956 295.997 204.164 295.432 204.164 294.75V293.953ZM212.031 291.297C211.807 291.125 211.484 291.039 211.062 291.039C210.516 291.039 210.057 291.297 209.688 291.812C209.323 292.328 209.141 293.031 209.141 293.922V298H207.859V290H209.141V291.648H209.172C209.354 291.086 209.633 290.648 210.008 290.336C210.383 290.018 210.802 289.859 211.266 289.859C211.599 289.859 211.854 289.896 212.031 289.969V291.297ZM219.852 294.32H214.203C214.224 295.211 214.464 295.898 214.922 296.383C215.38 296.867 216.01 297.109 216.812 297.109C217.714 297.109 218.542 296.812 219.297 296.219V297.422C218.594 297.932 217.664 298.188 216.508 298.188C215.378 298.188 214.49 297.826 213.844 297.102C213.198 296.372 212.875 295.349 212.875 294.031C212.875 292.786 213.227 291.773 213.93 290.992C214.638 290.206 215.516 289.812 216.562 289.812C217.609 289.812 218.419 290.151 218.992 290.828C219.565 291.505 219.852 292.445 219.852 293.648V294.32ZM218.539 293.234C218.534 292.495 218.354 291.919 218 291.508C217.651 291.096 217.164 290.891 216.539 290.891C215.935 290.891 215.422 291.107 215 291.539C214.578 291.971 214.318 292.536 214.219 293.234H218.539ZM233.016 297.359C233.016 300.297 231.609 301.766 228.797 301.766C227.807 301.766 226.943 301.578 226.203 301.203V299.922C227.104 300.422 227.964 300.672 228.781 300.672C230.75 300.672 231.734 299.625 231.734 297.531V296.656H231.703C231.094 297.677 230.177 298.188 228.953 298.188C227.958 298.188 227.156 297.833 226.547 297.125C225.943 296.411 225.641 295.456 225.641 294.258C225.641 292.898 225.966 291.818 226.617 291.016C227.273 290.214 228.169 289.812 229.305 289.812C230.383 289.812 231.182 290.245 231.703 291.109H231.734V290H233.016V297.359ZM231.734 294.383V293.203C231.734 292.568 231.518 292.023 231.086 291.57C230.659 291.117 230.125 290.891 229.484 290.891C228.693 290.891 228.073 291.18 227.625 291.758C227.177 292.331 226.953 293.135 226.953 294.172C226.953 295.062 227.167 295.776 227.594 296.312C228.026 296.844 228.596 297.109 229.305 297.109C230.023 297.109 230.607 296.854 231.055 296.344C231.508 295.833 231.734 295.18 231.734 294.383ZM238.953 298.188C237.771 298.188 236.826 297.815 236.117 297.07C235.414 296.32 235.062 295.328 235.062 294.094C235.062 292.75 235.43 291.701 236.164 290.945C236.898 290.19 237.891 289.812 239.141 289.812C240.333 289.812 241.263 290.18 241.93 290.914C242.602 291.648 242.938 292.667 242.938 293.969C242.938 295.245 242.576 296.268 241.852 297.039C241.133 297.805 240.167 298.188 238.953 298.188ZM239.047 290.891C238.224 290.891 237.573 291.172 237.094 291.734C236.615 292.292 236.375 293.062 236.375 294.047C236.375 294.995 236.617 295.742 237.102 296.289C237.586 296.836 238.234 297.109 239.047 297.109C239.875 297.109 240.51 296.841 240.953 296.305C241.401 295.768 241.625 295.005 241.625 294.016C241.625 293.016 241.401 292.245 240.953 291.703C240.51 291.161 239.875 290.891 239.047 290.891ZM245.641 287.969C245.411 287.969 245.216 287.891 245.055 287.734C244.893 287.578 244.812 287.38 244.812 287.141C244.812 286.901 244.893 286.703 245.055 286.547C245.216 286.385 245.411 286.305 245.641 286.305C245.875 286.305 246.073 286.385 246.234 286.547C246.401 286.703 246.484 286.901 246.484 287.141C246.484 287.37 246.401 287.565 246.234 287.727C246.073 287.888 245.875 287.969 245.641 287.969ZM246.266 298H244.984V290H246.266V298ZM255.5 298H254.219V293.438C254.219 291.74 253.599 290.891 252.359 290.891C251.719 290.891 251.188 291.133 250.766 291.617C250.349 292.096 250.141 292.703 250.141 293.438V298H248.859V290H250.141V291.328H250.172C250.776 290.318 251.651 289.812 252.797 289.812C253.672 289.812 254.341 290.096 254.805 290.664C255.268 291.227 255.5 292.042 255.5 293.109V298ZM264.75 297.359C264.75 300.297 263.344 301.766 260.531 301.766C259.542 301.766 258.677 301.578 257.938 301.203V299.922C258.839 300.422 259.698 300.672 260.516 300.672C262.484 300.672 263.469 299.625 263.469 297.531V296.656H263.438C262.828 297.677 261.911 298.188 260.688 298.188C259.693 298.188 258.891 297.833 258.281 297.125C257.677 296.411 257.375 295.456 257.375 294.258C257.375 292.898 257.701 291.818 258.352 291.016C259.008 290.214 259.904 289.812 261.039 289.812C262.117 289.812 262.917 290.245 263.438 291.109H263.469V290H264.75V297.359ZM263.469 294.383V293.203C263.469 292.568 263.253 292.023 262.82 291.57C262.393 291.117 261.859 290.891 261.219 290.891C260.427 290.891 259.807 291.18 259.359 291.758C258.911 292.331 258.688 293.135 258.688 294.172C258.688 295.062 258.901 295.776 259.328 296.312C259.76 296.844 260.331 297.109 261.039 297.109C261.758 297.109 262.341 296.854 262.789 296.344C263.242 295.833 263.469 295.18 263.469 294.383ZM275.445 297.922C275.143 298.089 274.745 298.172 274.25 298.172C272.849 298.172 272.148 297.391 272.148 295.828V291.094H270.773V290H272.148V288.047L273.43 287.633V290H275.445V291.094H273.43V295.602C273.43 296.138 273.521 296.521 273.703 296.75C273.885 296.979 274.188 297.094 274.609 297.094C274.932 297.094 275.211 297.005 275.445 296.828V297.922ZM280.5 298.188C279.318 298.188 278.372 297.815 277.664 297.07C276.961 296.32 276.609 295.328 276.609 294.094C276.609 292.75 276.977 291.701 277.711 290.945C278.445 290.19 279.438 289.812 280.688 289.812C281.88 289.812 282.81 290.18 283.477 290.914C284.148 291.648 284.484 292.667 284.484 293.969C284.484 295.245 284.122 296.268 283.398 297.039C282.68 297.805 281.714 298.188 280.5 298.188ZM280.594 290.891C279.771 290.891 279.12 291.172 278.641 291.734C278.161 292.292 277.922 293.062 277.922 294.047C277.922 294.995 278.164 295.742 278.648 296.289C279.133 296.836 279.781 297.109 280.594 297.109C281.422 297.109 282.057 296.841 282.5 296.305C282.948 295.768 283.172 295.005 283.172 294.016C283.172 293.016 282.948 292.245 282.5 291.703C282.057 291.161 281.422 290.891 280.594 290.891ZM295.094 291.297C294.87 291.125 294.547 291.039 294.125 291.039C293.578 291.039 293.12 291.297 292.75 291.812C292.385 292.328 292.203 293.031 292.203 293.922V298H290.922V290H292.203V291.648H292.234C292.417 291.086 292.695 290.648 293.07 290.336C293.445 290.018 293.865 289.859 294.328 289.859C294.661 289.859 294.917 289.896 295.094 289.969V291.297ZM302.914 294.32H297.266C297.286 295.211 297.526 295.898 297.984 296.383C298.443 296.867 299.073 297.109 299.875 297.109C300.776 297.109 301.604 296.812 302.359 296.219V297.422C301.656 297.932 300.727 298.188 299.57 298.188C298.44 298.188 297.552 297.826 296.906 297.102C296.26 296.372 295.938 295.349 295.938 294.031C295.938 292.786 296.289 291.773 296.992 290.992C297.701 290.206 298.578 289.812 299.625 289.812C300.672 289.812 301.482 290.151 302.055 290.828C302.628 291.505 302.914 292.445 302.914 293.648V294.32ZM301.602 293.234C301.596 292.495 301.417 291.919 301.062 291.508C300.714 291.096 300.227 290.891 299.602 290.891C298.997 290.891 298.484 291.107 298.062 291.539C297.641 291.971 297.38 292.536 297.281 293.234H301.602ZM306.141 298H304.859V286.156H306.141V298ZM315.164 294.32H309.516C309.536 295.211 309.776 295.898 310.234 296.383C310.693 296.867 311.323 297.109 312.125 297.109C313.026 297.109 313.854 296.812 314.609 296.219V297.422C313.906 297.932 312.977 298.188 311.82 298.188C310.69 298.188 309.802 297.826 309.156 297.102C308.51 296.372 308.188 295.349 308.188 294.031C308.188 292.786 308.539 291.773 309.242 290.992C309.951 290.206 310.828 289.812 311.875 289.812C312.922 289.812 313.732 290.151 314.305 290.828C314.878 291.505 315.164 292.445 315.164 293.648V294.32ZM313.852 293.234C313.846 292.495 313.667 291.919 313.312 291.508C312.964 291.096 312.477 290.891 311.852 290.891C311.247 290.891 310.734 291.107 310.312 291.539C309.891 291.971 309.63 292.536 309.531 293.234H313.852ZM322.836 298H321.555V296.75H321.523C320.966 297.708 320.146 298.188 319.062 298.188C318.266 298.188 317.641 297.977 317.188 297.555C316.74 297.133 316.516 296.573 316.516 295.875C316.516 294.38 317.396 293.51 319.156 293.266L321.555 292.93C321.555 291.57 321.005 290.891 319.906 290.891C318.943 290.891 318.073 291.219 317.297 291.875V290.562C318.083 290.062 318.99 289.812 320.016 289.812C321.896 289.812 322.836 290.807 322.836 292.797V298ZM321.555 293.953L319.625 294.219C319.031 294.302 318.583 294.451 318.281 294.664C317.979 294.872 317.828 295.245 317.828 295.781C317.828 296.172 317.966 296.492 318.242 296.742C318.523 296.987 318.896 297.109 319.359 297.109C319.995 297.109 320.518 296.888 320.93 296.445C321.346 295.997 321.555 295.432 321.555 294.75V293.953ZM324.766 297.711V296.336C325.464 296.852 326.232 297.109 327.07 297.109C328.195 297.109 328.758 296.734 328.758 295.984C328.758 295.771 328.708 295.591 328.609 295.445C328.516 295.294 328.385 295.161 328.219 295.047C328.057 294.932 327.865 294.831 327.641 294.742C327.422 294.648 327.185 294.552 326.93 294.453C326.576 294.312 326.263 294.172 325.992 294.031C325.727 293.885 325.503 293.724 325.32 293.547C325.143 293.365 325.008 293.159 324.914 292.93C324.826 292.701 324.781 292.432 324.781 292.125C324.781 291.75 324.867 291.419 325.039 291.133C325.211 290.841 325.44 290.599 325.727 290.406C326.013 290.208 326.339 290.06 326.703 289.961C327.073 289.862 327.453 289.812 327.844 289.812C328.536 289.812 329.156 289.932 329.703 290.172V291.469C329.115 291.083 328.438 290.891 327.672 290.891C327.432 290.891 327.216 290.919 327.023 290.977C326.831 291.029 326.664 291.104 326.523 291.203C326.388 291.302 326.281 291.422 326.203 291.562C326.13 291.698 326.094 291.849 326.094 292.016C326.094 292.224 326.13 292.398 326.203 292.539C326.281 292.68 326.393 292.805 326.539 292.914C326.685 293.023 326.862 293.122 327.07 293.211C327.279 293.299 327.516 293.396 327.781 293.5C328.135 293.635 328.453 293.776 328.734 293.922C329.016 294.062 329.255 294.224 329.453 294.406C329.651 294.583 329.802 294.789 329.906 295.023C330.016 295.258 330.07 295.536 330.07 295.859C330.07 296.255 329.982 296.599 329.805 296.891C329.633 297.182 329.401 297.424 329.109 297.617C328.818 297.81 328.482 297.953 328.102 298.047C327.721 298.141 327.323 298.188 326.906 298.188C326.083 298.188 325.37 298.029 324.766 297.711ZM338.477 294.32H332.828C332.849 295.211 333.089 295.898 333.547 296.383C334.005 296.867 334.635 297.109 335.438 297.109C336.339 297.109 337.167 296.812 337.922 296.219V297.422C337.219 297.932 336.289 298.188 335.133 298.188C334.003 298.188 333.115 297.826 332.469 297.102C331.823 296.372 331.5 295.349 331.5 294.031C331.5 292.786 331.852 291.773 332.555 290.992C333.263 290.206 334.141 289.812 335.188 289.812C336.234 289.812 337.044 290.151 337.617 290.828C338.19 291.505 338.477 292.445 338.477 293.648V294.32ZM337.164 293.234C337.159 292.495 336.979 291.919 336.625 291.508C336.276 291.096 335.789 290.891 335.164 290.891C334.56 290.891 334.047 291.107 333.625 291.539C333.203 291.971 332.943 292.536 332.844 293.234H337.164ZM347.25 298H345.969V296.641H345.938C345.344 297.672 344.427 298.188 343.188 298.188C342.182 298.188 341.378 297.831 340.773 297.117C340.174 296.398 339.875 295.422 339.875 294.188C339.875 292.865 340.208 291.805 340.875 291.008C341.542 290.211 342.43 289.812 343.539 289.812C344.638 289.812 345.438 290.245 345.938 291.109H345.969V286.156H347.25V298ZM345.969 294.383V293.203C345.969 292.557 345.755 292.01 345.328 291.562C344.901 291.115 344.359 290.891 343.703 290.891C342.922 290.891 342.307 291.177 341.859 291.75C341.411 292.323 341.188 293.115 341.188 294.125C341.188 295.047 341.401 295.776 341.828 296.312C342.26 296.844 342.839 297.109 343.562 297.109C344.276 297.109 344.854 296.852 345.297 296.336C345.745 295.82 345.969 295.169 345.969 294.383ZM350.289 298.172C350.049 298.172 349.844 298.086 349.672 297.914C349.505 297.742 349.422 297.536 349.422 297.297C349.422 297.057 349.505 296.852 349.672 296.68C349.844 296.503 350.049 296.414 350.289 296.414C350.534 296.414 350.742 296.503 350.914 296.68C351.086 296.852 351.172 297.057 351.172 297.297C351.172 297.536 351.086 297.742 350.914 297.914C350.742 298.086 350.534 298.172 350.289 298.172Z" fill="#252525"/>
<path d="M354.339 92.4411H326.695C326.735 86.3578 326.773 80.2722 326.812 74.1878C326.244 73.8714 325.765 73.5036 325.359 73.1049C319.917 67.7511 325.658 54.6075 326.329 53.1131C327.537 54.877 328.745 56.6401 329.952 58.4045H337.456C338.451 56.6359 339.447 54.8672 340.439 53.0986C341.238 54.7826 342.007 56.678 342.667 58.7809C344.569 64.8443 344.844 70.319 344.649 74.4105C347.061 74.5006 348.678 75.2492 354.339 92.4415V92.4411Z" fill="#252525"/>
<path d="M329.439 66.5762C329.439 67.5374 329.282 68.3176 329.087 68.3176C328.895 68.3176 328.736 67.5369 328.736 66.5762C328.736 65.6127 328.894 64.832 329.087 64.832C329.282 64.832 329.439 65.6127 329.439 66.5762Z" fill="#FEFEFE"/>
<path d="M337.865 66.5762C337.865 67.5374 337.707 68.3176 337.513 68.3176C337.32 68.3176 337.163 67.5369 337.163 66.5762C337.163 65.6127 337.32 64.832 337.513 64.832C337.707 64.832 337.865 65.6127 337.865 66.5762Z" fill="#FEFEFE"/>
<path d="M190.078 92.4543H169.917L177.841 60.731H198.004L190.078 92.4543Z" fill="#0B84E8"/>
<path d="M238.313 74.559C238.539 76.6668 236.979 78.3895 234.849 78.3895H130.821C128.69 78.3895 126.763 76.6668 126.537 74.559L119.643 10.0839C119.417 7.97749 120.977 6.25342 123.105 6.25342H227.135C229.266 6.25342 231.193 7.97749 231.418 10.0839L238.313 74.559Z" fill="#0B84E8"/>
<path d="M135.204 73.5049C133.074 73.5049 131.147 71.7799 130.922 69.6735L125.055 14.8202C124.829 12.7134 126.389 10.9897 128.517 10.9897H222.819C224.948 10.9897 226.875 12.7134 227.1 14.8202L232.966 69.6735C233.192 71.7799 231.634 73.5049 229.504 73.5049H135.205H135.204Z" fill="white"/>
<path d="M158.692 28.2103H136.219L135.672 24.7246H158.142L158.692 28.2103Z" fill="#F64B7F" fill-opacity="0.8"/>
<path d="M187.053 28.2103H164.582L164.034 24.7246H186.506L187.053 28.2103Z" fill="#00BFD6" fill-opacity="0.5"/>
<path d="M160.368 38.323H137.898L137.35 34.8359H159.821L160.368 38.323Z" fill="#00BFD6" fill-opacity="0.5"/>
<path d="M177.253 46.8631H154.782L154.234 43.3774H176.706L177.253 46.8631Z" fill="#00BFD6" fill-opacity="0.5"/>
<path d="M190.603 56.7062H168.13L167.582 53.2178H190.055L190.603 56.7062Z" fill="#00BFD6" fill-opacity="0.5"/>
<path d="M204.276 56.7052H193.04L192.493 53.2168H203.727L204.276 56.7052Z" fill="#F64B7F" fill-opacity="0.8"/>
<path d="M202.081 46.8631H179.608L179.06 43.3774H201.533L202.081 46.8631Z" fill="#F64B7F" fill-opacity="0.8"/>
<path d="M466.863 92.4692C463.528 100.07 453.721 133.207 447.498 140.15H33.3569C21.12 132.79 8.89843 103.967 0.272461 92.4692H458.671H466.863Z" fill="url(#paint0_radial)"/>
<path d="M253.678 46.8631C248.83 61.3805 236.532 70.3874 226.209 66.9782C215.884 63.5676 211.446 49.0344 216.293 34.517C221.14 19.9982 233.439 10.9941 243.762 14.4033C254.085 17.8125 258.524 32.3462 253.678 46.8636V46.8631Z" fill="#F8B3AF"/>
<path d="M233.743 75.1061H254.622V50.3379H233.743V75.1061Z" fill="#F8B3AF"/>
<path d="M214.669 41.0951C214.669 41.0951 197.433 31.337 211.128 14.3809C214.669 9.23739 214.669 19.7157 214.669 19.7157C214.669 19.7157 226.43 -14.196 246.364 7.42758C246.364 7.42758 265.204 10.5995 269.392 23.2441C270.746 27.3341 270.008 30.8216 269.267 34.5766C269.009 35.8956 264.209 58.6542 248.097 61.4618C245.843 61.8535 240.585 62.3406 233.731 58.7469C227.377 52.8628 221.024 46.9801 214.67 41.096L214.669 41.0951Z" fill="#252525"/>
<path d="M231.719 49.606C232.13 54.1364 230.927 57.9464 229.033 58.1156C227.139 58.2857 225.273 54.7514 224.862 50.2201C224.453 45.6917 225.656 41.8825 227.549 41.7119C229.443 41.5419 231.309 45.0776 231.719 49.606Z" fill="#F8B3AF"/>
<path d="M298.763 137.955C298.763 137.955 294.668 140.277 283.608 142.252C270.95 144.512 249.184 146.308 214.02 143.63C205.846 143.021 196.946 142.154 187.272 141C187.272 141 190.046 128.317 196.672 113.275C205.717 92.7182 221.986 67.7512 248.201 64.7841C274.095 61.8513 286.895 86.0634 293.12 107.423C297.812 123.506 298.764 137.955 298.764 137.955H298.763Z" fill="url(#paint1_linear)"/>
<path d="M298.825 138.035C298.825 138.035 294.73 140.358 283.669 142.332L280.299 112.169L293.181 107.503C297.873 123.586 298.825 138.035 298.825 138.035V138.035Z" fill="#F8B3AF"/>
<path d="M218.175 120.714L216.788 128.46C215.209 137.168 207.148 143.197 198.296 142.282C194.748 141.913 191.071 141.512 187.284 141.063C174.837 139.684 150.878 104.808 150.878 104.808L144.332 106.075C142.204 113.579 140.607 115.487 139.447 115.422C136.996 115.295 135.755 106.171 136.577 100.75C136.739 99.7243 137.029 98.4257 138.061 97.5599C138.947 96.8221 140.14 96.5978 141.205 96.582C142.574 96.7099 143.252 96.7892 143.543 96.8063C143.187 96.7419 142.269 96.5649 141.205 96.582C141.042 96.5649 140.864 96.5501 140.672 96.5329C141.398 90.183 145.413 84.9075 150.943 83.0634C156.07 81.3477 160.6 83.2075 161.875 83.7697C161.875 83.7697 163.455 82.7746 167.26 83.1283C171.065 83.4962 173.08 92.7015 173.08 92.7015L196.684 113.338C201.085 116.45 208.728 120.618 218.175 120.714H218.175Z" fill="#F8B3AF"/>
<defs>
<radialGradient id="paint0_radial" cx="0" cy="0" r="1" gradientUnits="userSpaceOnUse" gradientTransform="translate(192.701 76.8397) rotate(91.8071) scale(56.9562 440.301)">
<stop stop-color="#65C3FF"/>
<stop offset="1" stop-color="white" stop-opacity="0"/>
</radialGradient>
<linearGradient id="paint1_linear" x1="242.98" y1="41.8274" x2="218.89" y2="168.031" gradientUnits="userSpaceOnUse">
<stop stop-color="#0D87EB"/>
<stop offset="1" stop-color="#EF4B80"/>
</linearGradient>
</defs>
</svg>
