<svg width="228" height="68" viewBox="0 0 228 68" fill="none" xmlns="http://www.w3.org/2000/svg">
<path d="M0.5 0.5H0.52858H0.579413H0.632513H0.68787H0.745475H0.805321H0.867397H0.931695H0.998206H1.06692H1.13784H1.21093H1.28621H1.36366H1.44327H1.52503H1.60893H1.69497H1.78314H1.87342H1.96581H2.0603H2.15688H2.25555H2.35628H2.45909H2.56394H2.67085H2.77979H2.89077H3.00376H3.11877H3.23578H3.35478H3.47577H3.59874H3.72368H3.85057H3.97942H4.11021H4.24293H4.37758H4.51414H4.65262H10.0384H10.2349H10.433H10.6327H10.834H11.0369H11.2413H11.4474H11.655H11.8641H12.0748H12.287H12.5007H12.7159H12.9327H13.1509H13.3707H13.5919H13.8145H14.0387H14.2643H14.4913H14.7198H14.9497H15.181H15.4137H15.6478H15.8833H16.1202H16.3585H16.5981H16.8391H17.0815H17.3251H17.5701H17.8165H18.0641H18.3131H18.5633H18.8148H19.0676H19.3217H19.577H19.8336H20.0914H20.3505H20.6108H20.8722H21.135H21.3989H21.6639H21.9302H22.1977H22.4663H22.736H23.0069H23.279H23.5522H23.8265H24.1019H24.3784H24.656H24.9347H25.2144H25.4953H25.7772H26.0601H26.6291H27.2022H27.4902H27.7793H28.9453H29.5341H29.8299H30.1266H30.7228H31.3226H31.6238H31.9259H32.2289H32.5327H32.8373H33.1429H33.4492H33.7564H34.0643H34.3731H34.6827H34.9931H35.3042H35.6161H35.9288H36.2422H36.5564H36.8713H37.187H37.5033H37.8204H38.1381H38.4566H38.7757H39.0955H39.416H39.7371H40.0589H40.3813H40.7043H41.028H41.3523H41.6772H42.0026H42.3287H42.6553H42.9825H43.3103H43.6386H43.9675H44.2969H44.6268H44.9572H45.2882H45.6196H45.9516H46.284H46.6169H46.9502H47.284H47.6183H47.953H48.2881H48.6236H48.9596H49.2959H49.6326H49.9698H50.3073H50.6452H50.9834H51.322H51.6609H52.0001H52.3397H52.6796H53.0198H53.3603H53.7011H54.0422H54.3835H54.7251H55.0669H55.409H55.7514H56.0939H126.52C135.89 0.5 145.606 4.72326 155.534 9.03823L155.727 9.12203C165.67 13.4436 175.819 17.8269 185.827 17.8269H185.942H186.058H186.174H186.29H186.406H186.523H186.639H186.755H186.871H186.988H187.104H187.221H187.337H187.454H187.57H187.687H187.804H187.92H188.037H188.154H188.271H188.388H188.504H188.621H188.738H188.855H188.972H189.089H189.207H189.324H189.441H189.558H189.675H189.792H189.91H190.027H190.144H190.262H190.379H190.496H190.614H190.731H190.848H190.966H191.083H191.201H191.318H191.435H191.553H191.67H191.788H191.905H192.023H192.14H192.258H192.375H192.493H192.61H192.727H192.845H192.962H193.08H193.197H193.315H193.432H193.549H193.667H193.784H193.901H194.019H194.136H194.253H194.371H194.488H194.605H194.722H194.839H194.957H195.074H195.191H195.308H195.425H195.542H195.659H195.776H195.893H196.009H196.126H196.243H196.36H196.477H196.593H196.71H196.826H196.943H197.059H197.176H197.292H197.409H197.525H197.641H197.757H197.874H197.99H198.106H198.222H198.337H198.453H198.569H198.685H198.801H198.916H199.032H199.147H199.263H199.378H199.493H199.608H199.723H199.839H199.953H200.068H200.183H200.298H200.413H200.527H200.642H200.756H200.87H200.985H201.099H201.213H201.327H201.441H201.555H201.668H201.782H201.896H202.009H202.122H202.236H202.349H202.462H202.575H202.688H202.801H202.913H203.026H203.138H203.251H203.363H203.475H203.587H203.699H203.811H203.922H204.034H204.145H204.257H204.368H204.479H204.59H204.701H204.812H204.922H205.033H205.143H205.253H205.363H205.473H205.583H205.693H205.802H205.912H206.021H206.13H206.239H206.348H206.457H206.566H206.674H206.783H206.891H206.999H207.107H207.215H207.322H207.43H207.537H207.644H207.751H207.858H207.965H208.071H208.178H208.284H208.39H208.496H208.602H208.707H208.813H208.918H209.023H209.128H209.233H209.337H209.442H209.546H209.65H209.754H209.858H209.961H210.065H210.168H210.271H210.374H210.476H210.579H210.681H210.783H210.885H210.987H211.088H211.19H211.291H211.392H211.493H211.593H211.694H211.794H211.894H211.994H212.093H212.193H212.292H212.391H212.49H212.588H212.687H212.785H212.883H212.981H213.078H213.175H213.273H213.369H213.466H213.563H213.659H213.755H213.851H213.946H214.042H214.137H214.232H214.327H214.421H214.515H214.609H214.703H214.797H214.89H214.983H215.076H215.169H215.261H215.353H215.445H215.537H215.628H215.719H215.81H215.901H215.992H216.082H216.172H216.262H216.351H216.44H216.529H216.618H216.706H216.795H216.883H216.97H217.058H217.145H217.232H217.318H217.405H217.491H217.577H217.662H217.748H217.833H217.918H218.002H218.086H218.17H218.254H218.337H218.421H218.503H218.586H218.668H218.75H218.832H218.914H218.995H219.076H219.156H219.236H219.317H219.396H219.476H219.555H219.634H219.712H219.791H219.869H219.946H220.024H220.101H220.177H220.254H220.33H220.406H220.482H220.557H220.632H220.706H220.781H220.855H220.928H221.002H221.075H221.148H221.22H221.292H221.364H221.435H221.507H221.577H221.648H221.718H221.788H221.858H221.927H221.996H222.064H222.132H222.2H222.268H222.335H222.402H222.469H222.535H222.601H222.666H222.731H222.796H222.861H222.925H222.989H223.052H223.115H223.178H223.24H223.302H223.364H223.425H223.486H223.547H223.607H223.667H223.727H223.786H223.845H223.903H223.962H224.019H224.077H224.134H224.19H224.247H224.303H224.358H224.413H224.468H224.523H224.577H224.63H224.684H224.736H224.789H224.841H224.893H224.944H224.995H225.046H225.096H225.146H225.195H225.244H225.293H225.341H225.389H225.437H225.484H225.53H225.577H225.623H225.668H225.713H225.758H225.802H225.846H225.889H225.932H225.975H226.017H226.059H226.101H226.142H226.182H226.222H226.262H226.301H226.34H226.379H226.417H226.455H226.492H226.529H226.565H226.601H226.636H226.672H226.706H226.74H226.774H226.808H226.841H226.873H226.905H226.937H226.968H226.999H227.029H227.059H227.088H227.117H227.146H227.174H227.202H227.229H227.255H227.282H227.308H227.333H227.358H227.382H227.406H227.43H227.453H227.476H227.498H227.5V58C227.5 63.2467 223.247 67.5 218 67.5H10C4.7533 67.5 0.5 63.2467 0.5 58V0.5Z" fill="white" stroke="#EBEBF0"/>
</svg>
