<svg width="13" height="13" viewBox="0 0 13 13" fill="none" xmlns="http://www.w3.org/2000/svg">
<path d="M6.5 1.5C3.73858 1.5 1.5 3.73858 1.5 6.5C1.5 9.26142 3.73858 11.5 6.5 11.5C9.26142 11.5 11.5 9.26142 11.5 6.5C11.5 3.73858 9.26142 1.5 6.5 1.5ZM0.25 6.5C0.25 3.04822 3.04822 0.25 6.5 0.25C9.95178 0.25 12.75 3.04822 12.75 6.5C12.75 9.95178 9.95178 12.75 6.5 12.75C3.04822 12.75 0.25 9.95178 0.25 6.5ZM3.87056 3.87056C4.11464 3.62648 4.51036 3.62648 4.75444 3.87056L6.5 5.61612L8.24556 3.87056C8.48964 3.62648 8.88536 3.62648 9.12944 3.87056C9.37352 4.11464 9.37352 4.51036 9.12944 4.75444L7.38388 6.5L9.12944 8.24556C9.37352 8.48964 9.37352 8.88536 9.12944 9.12944C8.88536 9.37352 8.48964 9.37352 8.24556 9.12944L6.5 7.38388L4.75444 9.12944C4.51036 9.37352 4.11464 9.37352 3.87056 9.12944C3.62648 8.88536 3.62648 8.48964 3.87056 8.24556L5.61612 6.5L3.87056 4.75444C3.62648 4.51036 3.62648 4.11464 3.87056 3.87056Z" fill="#8F90A6"/>
</svg>
