<svg width="44" height="44" viewBox="0 0 44 44" fill="none" xmlns="http://www.w3.org/2000/svg">
<circle cx="22" cy="22" r="22" fill="white"/>
<path d="M18.5 17C19.6046 17 20.5 16.1046 20.5 15C20.5 13.8954 19.6046 13 18.5 13C17.3954 13 16.5 13.8954 16.5 15C16.5 16.1046 17.3954 17 18.5 17Z" fill="#0071CE"/>
<path d="M18.5 24C19.6046 24 20.5 23.1046 20.5 22C20.5 20.8954 19.6046 20 18.5 20C17.3954 20 16.5 20.8954 16.5 22C16.5 23.1046 17.3954 24 18.5 24Z" fill="#0071CE"/>
<path d="M20.5 29C20.5 30.1046 19.6046 31 18.5 31C17.3954 31 16.5 30.1046 16.5 29C16.5 27.8954 17.3954 27 18.5 27C19.6046 27 20.5 27.8954 20.5 29Z" fill="#0071CE"/>
<path d="M25.5 17C26.6046 17 27.5 16.1046 27.5 15C27.5 13.8954 26.6046 13 25.5 13C24.3954 13 23.5 13.8954 23.5 15C23.5 16.1046 24.3954 17 25.5 17Z" fill="#0071CE"/>
<path d="M27.5 22C27.5 23.1046 26.6046 24 25.5 24C24.3954 24 23.5 23.1046 23.5 22C23.5 20.8954 24.3954 20 25.5 20C26.6046 20 27.5 20.8954 27.5 22Z" fill="#0071CE"/>
<path d="M25.5 31C26.6046 31 27.5 30.1046 27.5 29C27.5 27.8954 26.6046 27 25.5 27C24.3954 27 23.5 27.8954 23.5 29C23.5 30.1046 24.3954 31 25.5 31Z" fill="#0071CE"/>
</svg>
