<svg width="11" height="13" viewBox="0 0 11 13" fill="none" xmlns="http://www.w3.org/2000/svg">
<path d="M0.5 1.5C0.5 0.809645 1.05964 0.25 1.75 0.25H6.75C6.91576 0.25 7.07473 0.315848 7.19194 0.433058L10.3169 3.55806C10.4342 3.67527 10.5 3.83424 10.5 4V11.5C10.5 12.1904 9.94036 12.75 9.25 12.75H1.75C1.05964 12.75 0.5 12.1904 0.5 11.5V1.5ZM8.99112 4L6.75 1.75888V4H8.99112ZM5.5 1.5L1.75 1.5V11.5H9.25V5.25H6.125C5.77982 5.25 5.5 4.97018 5.5 4.625V1.5ZM5.5 6.5C5.84518 6.5 6.125 6.77982 6.125 7.125V7.75H6.75C7.09518 7.75 7.375 8.02982 7.375 8.375C7.375 8.72018 7.09518 9 6.75 9H6.125V9.625C6.125 9.97018 5.84518 10.25 5.5 10.25C5.15482 10.25 4.875 9.97018 4.875 9.625V9H4.25C3.90482 9 3.625 8.72018 3.625 8.375C3.625 8.02982 3.90482 7.75 4.25 7.75H4.875V7.125C4.875 6.77982 5.15482 6.5 5.5 6.5Z" fill="#8F90A6"/>
</svg>
