<svg width="12" height="8" viewBox="0 0 12 8" fill="none" xmlns="http://www.w3.org/2000/svg">
<path d="M0.666992 0.666667C0.666992 0.298477 0.965469 0 1.33366 0H10.667C11.0352 0 11.3337 0.298477 11.3337 0.666667C11.3337 1.03486 11.0352 1.33333 10.667 1.33333H1.33366C0.965469 1.33333 0.666992 1.03486 0.666992 0.666667ZM2.00033 4C2.00033 3.63181 2.2988 3.33333 2.66699 3.33333H9.33366C9.70185 3.33333 10.0003 3.63181 10.0003 4C10.0003 4.36819 9.70185 4.66667 9.33366 4.66667H2.66699C2.2988 4.66667 2.00033 4.36819 2.00033 4ZM3.33366 7.33333C3.33366 6.96514 3.63214 6.66667 4.00033 6.66667H8.00033C8.36852 6.66667 8.66699 6.96514 8.66699 7.33333C8.66699 7.70152 8.36852 8 8.00033 8H4.00033C3.63214 8 3.33366 7.70152 3.33366 7.33333Z" fill="#0071CE"/>
</svg>
