<svg width="13" height="11" viewBox="0 0 13 11" fill="none" xmlns="http://www.w3.org/2000/svg">
<path d="M0.25 1.75C0.25 1.05964 0.809644 0.5 1.5 0.5H4.625C4.79076 0.5 4.94973 0.565848 5.06694 0.683058L6.13388 1.75H11.5C12.1904 1.75 12.75 2.30964 12.75 3V9.25C12.75 9.94036 12.1904 10.5 11.5 10.5H1.5C0.809645 10.5 0.25 9.94036 0.25 9.25V1.75ZM4.36612 1.75L1.5 1.75V9.25H11.5V3H5.875C5.70924 3 5.55027 2.93415 5.43306 2.81694L4.36612 1.75ZM6.5 4.25C6.84518 4.25 7.125 4.52982 7.125 4.875V5.5H7.75C8.09518 5.5 8.375 5.77982 8.375 6.125C8.375 6.47018 8.09518 6.75 7.75 6.75H7.125V7.375C7.125 7.72018 6.84518 8 6.5 8C6.15482 8 5.875 7.72018 5.875 7.375V6.75H5.25C4.90482 6.75 4.625 6.47018 4.625 6.125C4.625 5.77982 4.90482 5.5 5.25 5.5H5.875V4.875C5.875 4.52982 6.15482 4.25 6.5 4.25Z" fill="#8F90A6"/>
</svg>
