<svg width="13" height="13" viewBox="0 0 13 13" fill="none" xmlns="http://www.w3.org/2000/svg">
<path d="M6.50002 0.5625C6.73675 0.5625 6.95316 0.696251 7.05903 0.907991L8.67085 4.13162L12.215 4.64713C12.4504 4.68137 12.6459 4.84627 12.7194 5.07249C12.7929 5.29872 12.7316 5.54707 12.5613 5.71312L9.98188 8.22809L10.5621 11.7741C10.6005 12.0084 10.5027 12.2443 10.3098 12.3827C10.1169 12.5212 9.86215 12.5384 9.65238 12.4271L6.50002 10.7544L3.34765 12.4271C3.13789 12.5384 2.88316 12.5212 2.69025 12.3827C2.49733 12.2443 2.39956 12.0084 2.43791 11.7741L3.01816 8.22809L0.438706 5.71312C0.26839 5.54707 0.207102 5.29872 0.280606 5.07249C0.35411 4.84627 0.549661 4.68137 0.785056 4.64713L4.32918 4.13162L5.941 0.907991C6.04687 0.696251 6.26328 0.5625 6.50002 0.5625ZM6.50002 2.58504L5.30122 4.98263C5.20975 5.16557 5.03457 5.29218 4.83217 5.32162L2.21776 5.70189L4.12383 7.56031C4.26988 7.70271 4.33726 7.90743 4.30431 8.10874L3.87502 10.7322L6.20707 9.49478C6.39027 9.39757 6.60976 9.39757 6.79296 9.49478L9.12501 10.7322L8.69572 8.10874C8.66278 7.90743 8.73015 7.70271 8.8762 7.56031L10.7823 5.70189L8.16787 5.32162C7.96547 5.29218 7.79028 5.16557 7.69881 4.98263L6.50002 2.58504Z" fill="#8F90A6"/>
</svg>
