<svg width="12" height="12" viewBox="0 0 12 12" fill="none" xmlns="http://www.w3.org/2000/svg">
<path d="M0.75 1.5C0.75 0.671573 1.42157 0 2.25 0H9.75C10.5784 0 11.25 0.671573 11.25 1.5V2.25C11.25 2.66421 10.9142 3 10.5 3C10.0858 3 9.75 2.66421 9.75 2.25V1.5H6.75V10.5H7.5C7.91421 10.5 8.25 10.8358 8.25 11.25C8.25 11.6642 7.91421 12 7.5 12H4.5C4.08579 12 3.75 11.6642 3.75 11.25C3.75 10.8358 4.08579 10.5 4.5 10.5H5.25V1.5H2.25V2.25C2.25 2.66421 1.91421 3 1.5 3C1.08579 3 0.75 2.66421 0.75 2.25V1.5Z" fill="#8F90A6"/>
</svg>
