<svg width="28" height="28" viewBox="0 0 28 28" fill="none" xmlns="http://www.w3.org/2000/svg">
    <path d="M14 3.33366C8.10898 3.33366 3.33335 8.10929 3.33335 14.0003C3.33335 19.8914 8.10898 24.667 14 24.667C19.8911 24.667 24.6667 19.8914 24.6667 14.0003C24.6667 8.10929 19.8911 3.33366 14 3.33366ZM0.666687 14.0003C0.666687 6.63653 6.63622 0.666992 14 0.666992C21.3638 0.666992 27.3334 6.63653 27.3334 14.0003C27.3334 21.3641 21.3638 27.3337 14 27.3337C6.63622 27.3337 0.666687 21.3641 0.666687 14.0003Z"
          fill="#8F90A6"/>
    <path d="M14 11.3337C14.7364 11.3337 15.3334 11.9306 15.3334 12.667V20.667C15.3334 21.4034 14.7364 22.0003 14 22.0003C13.2636 22.0003 12.6667 21.4034 12.6667 20.667V12.667C12.6667 11.9306 13.2636 11.3337 14 11.3337Z"
          fill="#8F90A6"/>
    <path d="M16 8.00033C16 9.1049 15.1046 10.0003 14 10.0003C12.8955 10.0003 12 9.1049 12 8.00033C12 6.89576 12.8955 6.00033 14 6.00033C15.1046 6.00033 16 6.89576 16 8.00033Z"
          fill="#8F90A6"/>
</svg>
