<svg width="13" height="13" viewBox="0 0 13 13" fill="none" xmlns="http://www.w3.org/2000/svg">
<path d="M5.25 1.5C3.86929 1.5 2.75 2.61929 2.75 4C2.75 5.38071 3.86929 6.5 5.25 6.5C6.63071 6.5 7.75 5.38071 7.75 4C7.75 2.61929 6.63071 1.5 5.25 1.5ZM1.5 4C1.5 1.92893 3.17893 0.25 5.25 0.25C7.32107 0.25 9 1.92893 9 4C9 6.07107 7.32107 7.75 5.25 7.75C3.17893 7.75 1.5 6.07107 1.5 4ZM10.875 5.875C11.2202 5.875 11.5 6.15482 11.5 6.5V7.125H12.125C12.4702 7.125 12.75 7.40482 12.75 7.75C12.75 8.09518 12.4702 8.375 12.125 8.375H11.5V9C11.5 9.34518 11.2202 9.625 10.875 9.625C10.5298 9.625 10.25 9.34518 10.25 9V8.375H9.625C9.27982 8.375 9 8.09518 9 7.75C9 7.40482 9.27982 7.125 9.625 7.125H10.25V6.5C10.25 6.15482 10.5298 5.875 10.875 5.875ZM3.0625 10.25C2.27534 10.25 1.5 11.0085 1.5 12.125C1.5 12.4702 1.22018 12.75 0.875 12.75C0.529822 12.75 0.25 12.4702 0.25 12.125C0.25 10.4801 1.43342 9 3.0625 9H7.4375C9.06658 9 10.25 10.4801 10.25 12.125C10.25 12.4702 9.97018 12.75 9.625 12.75C9.27982 12.75 9 12.4702 9 12.125C9 11.0085 8.22466 10.25 7.4375 10.25H3.0625Z" fill="#8F90A6"/>
</svg>
