<svg width="15" height="10" viewBox="0 0 15 10" fill="none" xmlns="http://www.w3.org/2000/svg">
<path d="M0.833008 0.833333C0.833008 0.373096 1.2061 0 1.66634 0H2.49967C2.95991 0 3.33301 0.373096 3.33301 0.833333C3.33301 1.29357 2.95991 1.66667 2.49967 1.66667H1.66634C1.2061 1.66667 0.833008 1.29357 0.833008 0.833333ZM4.99967 0.833333C4.99967 0.373096 5.37277 0 5.83301 0H13.333C13.7932 0 14.1663 0.373096 14.1663 0.833333C14.1663 1.29357 13.7932 1.66667 13.333 1.66667H5.83301C5.37277 1.66667 4.99967 1.29357 4.99967 0.833333ZM0.833008 5C0.833008 4.53976 1.2061 4.16667 1.66634 4.16667H2.49967C2.95991 4.16667 3.33301 4.53976 3.33301 5C3.33301 5.46024 2.95991 5.83333 2.49967 5.83333H1.66634C1.2061 5.83333 0.833008 5.46024 0.833008 5ZM4.99967 5C4.99967 4.53976 5.37277 4.16667 5.83301 4.16667H13.333C13.7932 4.16667 14.1663 4.53976 14.1663 5C14.1663 5.46024 13.7932 5.83333 13.333 5.83333H5.83301C5.37277 5.83333 4.99967 5.46024 4.99967 5ZM0.833008 9.16667C0.833008 8.70643 1.2061 8.33333 1.66634 8.33333H2.49967C2.95991 8.33333 3.33301 8.70643 3.33301 9.16667C3.33301 9.6269 2.95991 10 2.49967 10H1.66634C1.2061 10 0.833008 9.6269 0.833008 9.16667ZM4.99967 9.16667C4.99967 8.70643 5.37277 8.33333 5.83301 8.33333H13.333C13.7932 8.33333 14.1663 8.70643 14.1663 9.16667C14.1663 9.6269 13.7932 10 13.333 10H5.83301C5.37277 10 4.99967 9.6269 4.99967 9.16667Z" fill="#2E3A59"/>
</svg>
