<svg width="9" height="8" viewBox="0 0 9 8" fill="none" xmlns="http://www.w3.org/2000/svg">
<path fill-rule="evenodd" clip-rule="evenodd" d="M3.58333 7.33333C3.58333 7.10321 3.39679 6.91667 3.16667 6.91667H1.08333V1.08333H3.16667C3.39679 1.08333 3.58333 0.896785 3.58333 0.666667C3.58333 0.436547 3.39679 0.25 3.16667 0.25H1.08333C0.623096 0.25 0.25 0.623096 0.25 1.08333V6.91667C0.25 7.3769 0.623096 7.75 1.08333 7.75H3.16667C3.39679 7.75 3.58333 7.56345 3.58333 7.33333Z" fill="#8F90A6"/>
<path d="M8.04734 4.2919C8.08594 4.25259 8.11518 4.20752 8.13505 4.15949C8.15527 4.11073 8.1665 4.05729 8.16667 4.00125L8.16667 4L8.16667 3.99875C8.16635 3.89253 8.12567 3.78641 8.04463 3.70537L6.37796 2.03871C6.21524 1.87599 5.95142 1.87599 5.78871 2.03871C5.62599 2.20142 5.62599 2.46524 5.78871 2.62796L6.74408 3.58333H2.75C2.51988 3.58333 2.33333 3.76988 2.33333 4C2.33333 4.23012 2.51988 4.41667 2.75 4.41667H6.74408L5.78871 5.37204C5.62599 5.53476 5.62599 5.79858 5.78871 5.96129C5.95142 6.12401 6.21524 6.12401 6.37796 5.96129L8.04433 4.29492L8.04734 4.2919Z" fill="#8F90A6"/>
</svg>
