<svg width="12" height="12" viewBox="0 0 12 12" fill="none" xmlns="http://www.w3.org/2000/svg">
<path d="M8.33333 4.66667C8.88562 4.66667 9.33333 4.21895 9.33333 3.66667C9.33333 3.11438 8.88562 2.66667 8.33333 2.66667C7.78105 2.66667 7.33333 3.11438 7.33333 3.66667C7.33333 4.21895 7.78105 4.66667 8.33333 4.66667Z" fill="#2E3A59"/>
<path d="M0 1.33333C0 0.596954 0.596954 0 1.33333 0H10.6667C11.403 0 12 0.596954 12 1.33333V10.6667C12 11.403 11.403 12 10.6667 12H1.33333C0.596954 12 0 11.403 0 10.6667V1.33333ZM10.6667 1.33333H1.33333V6.61294L3.58356 4.81275C3.82704 4.61797 4.17301 4.61797 4.41649 4.81275L7.28388 7.10667L8.19529 6.19526C8.45564 5.93491 8.87775 5.93491 9.1381 6.19526L10.6667 7.72383V1.33333ZM1.33333 10.6667H10.6667V9.60945L8.66669 7.60948L7.80476 8.4714C7.56456 8.71161 7.18216 8.73279 6.9169 8.52058L4.00002 6.18708L1.33333 8.32044V10.6667Z" fill="#2E3A59"/>
</svg>
