<svg width="15" height="10" viewBox="0 0 15 10" fill="none" xmlns="http://www.w3.org/2000/svg">
<path d="M4.5 2C2.81421 2 1.5 3.31421 1.5 5C1.5 6.68579 2.81421 8 4.5 8H6C6.41421 8 6.75 8.33579 6.75 8.75C6.75 9.16421 6.41421 9.5 6 9.5H4.5C1.98579 9.5 0 7.51421 0 5C0 2.48579 1.98579 0.5 4.5 0.5H6C6.41421 0.5 6.75 0.835786 6.75 1.25C6.75 1.66421 6.41421 2 6 2H4.5ZM8.25 1.25C8.25 0.835786 8.58579 0.5 9 0.5H10.5C13.0142 0.5 15 2.48579 15 5C15 7.51421 13.0142 9.5 10.5 9.5H9C8.58579 9.5 8.25 9.16421 8.25 8.75C8.25 8.33579 8.58579 8 9 8H10.5C12.1858 8 13.5 6.68579 13.5 5C13.5 3.31421 12.1858 2 10.5 2H9C8.58579 2 8.25 1.66421 8.25 1.25ZM3.75 5C3.75 4.58579 4.08579 4.25 4.5 4.25H10.5C10.9142 4.25 11.25 4.58579 11.25 5C11.25 5.41421 10.9142 5.75 10.5 5.75H4.5C4.08579 5.75 3.75 5.41421 3.75 5Z" fill="#8F90A6"/>
</svg>
