<svg width="11" height="13" viewBox="0 0 11 13" fill="none" xmlns="http://www.w3.org/2000/svg">
<path d="M6.93306 0.433058C7.17714 0.188981 7.57286 0.188981 7.81694 0.433058L10.3169 2.93306C10.561 3.17714 10.561 3.57286 10.3169 3.81694L7.81694 6.31694C7.57286 6.56102 7.17714 6.56102 6.93306 6.31694C6.68898 6.07286 6.68898 5.67714 6.93306 5.43306L8.36612 4L1.125 4C0.779822 4 0.5 3.72018 0.5 3.375C0.5 3.02982 0.779822 2.75 1.125 2.75L8.36612 2.75L6.93306 1.31694C6.68898 1.07286 6.68898 0.677136 6.93306 0.433058ZM4.06694 6.68306C4.31102 6.92714 4.31102 7.32286 4.06694 7.56694L2.63388 9H9.875C10.2202 9 10.5 9.27982 10.5 9.625C10.5 9.97018 10.2202 10.25 9.875 10.25H2.63388L4.06694 11.6831C4.31102 11.9271 4.31102 12.3229 4.06694 12.5669C3.82286 12.811 3.42714 12.811 3.18306 12.5669L0.683058 10.0669C0.565848 9.94973 0.5 9.79076 0.5 9.625C0.5 9.45924 0.565848 9.30027 0.683058 9.18306L3.18306 6.68306C3.42714 6.43898 3.82286 6.43898 4.06694 6.68306Z" fill="#8F90A6"/>
</svg>
