<svg width="20" height="13" viewBox="0 0 20 13" fill="none" xmlns="http://www.w3.org/2000/svg">
<path d="M15.6152 4.724C15.0958 2.12163 12.7812 0.167969 10.0007 0.167969C7.79301 0.167969 5.87565 1.40504 4.92079 3.21538C2.62148 3.45676 0.833984 5.38025 0.833984 7.71107C0.833984 10.2078 2.58002 12.668 5.41732 12.668H15.3479C17.8578 12.668 19.1673 10.5473 19.1673 8.46538C19.1673 6.474 17.6013 4.85978 15.6152 4.724ZM11.5284 6.95676C11.5284 6.95676 11.3102 8.35762 10.4372 9.65073C9.56414 10.9438 8.47287 10.9438 8.47287 10.9438V6.95676H6.18121L10.0007 3.18521L13.8201 6.95676H11.5284Z" fill="#0D87EB" fill-opacity="0.5"/>
</svg>
