<svg width="160" height="160" viewBox="0 0 160 160" fill="none" xmlns="http://www.w3.org/2000/svg">
<circle cx="80" cy="80" r="80" fill="#BCBCBC" fill-opacity="0.5"/>
<path d="M94.2868 102.867H108.573V97.1523C108.572 95.371 108.017 93.634 106.984 92.1827C105.951 90.7314 104.492 89.638 102.809 89.0545C101.126 88.471 99.3029 88.4263 97.5933 88.9267C95.8837 89.4271 94.3725 90.4477 93.2697 91.8466M94.2868 102.867L93.2697 91.8466M94.2868 102.867H65.7154M94.2868 102.867V97.1523C94.2868 95.2781 93.9268 93.4866 93.2697 91.8466M93.2697 91.8466C92.2087 89.1951 90.3776 86.9222 88.0125 85.3213C85.6475 83.7203 82.8571 82.8646 80.0011 82.8646C77.1452 82.8646 74.3547 83.7203 71.9897 85.3213C69.6247 86.9222 67.7936 89.1951 66.7325 91.8466M65.7154 102.867H51.4297V97.1523C51.4298 95.371 51.9849 93.634 53.0179 92.1827C54.0508 90.7314 55.5102 89.638 57.1933 89.0545C58.8763 88.471 60.6993 88.4263 62.4089 88.9267C64.1185 89.4271 65.6298 90.4477 66.7325 91.8466M65.7154 102.867L66.7325 91.8466M65.7154 102.867V97.1523C65.7154 95.2781 66.0754 93.4866 66.7325 91.8466M88.5725 65.7238C88.5725 67.9971 87.6695 70.1772 86.062 71.7847C84.4546 73.3921 82.2744 74.2952 80.0011 74.2952C77.7278 74.2952 75.5477 73.3921 73.9402 71.7847C72.3327 70.1772 71.4297 67.9971 71.4297 65.7238C71.4297 63.4505 72.3327 61.2703 73.9402 59.6629C75.5477 58.0554 77.7278 57.1523 80.0011 57.1523C82.2744 57.1523 84.4546 58.0554 86.062 59.6629C87.6695 61.2703 88.5725 63.4505 88.5725 65.7238ZM105.715 74.2952C105.715 75.8107 105.113 77.2642 104.042 78.3358C102.97 79.4074 101.517 80.0095 100.001 80.0095C98.4856 80.0095 97.0321 79.4074 95.9605 78.3358C94.8889 77.2642 94.2868 75.8107 94.2868 74.2952C94.2868 72.7797 94.8889 71.3262 95.9605 70.2546C97.0321 69.183 98.4856 68.5809 100.001 68.5809C101.517 68.5809 102.97 69.183 104.042 70.2546C105.113 71.3262 105.715 72.7797 105.715 74.2952ZM65.7154 74.2952C65.7154 75.8107 65.1134 77.2642 64.0417 78.3358C62.9701 79.4074 61.5166 80.0095 60.0011 80.0095C58.4856 80.0095 57.0321 79.4074 55.9605 78.3358C54.8889 77.2642 54.2868 75.8107 54.2868 74.2952C54.2868 72.7797 54.8889 71.3262 55.9605 70.2546C57.0321 69.183 58.4856 68.5809 60.0011 68.5809C61.5166 68.5809 62.9701 69.183 64.0417 70.2546C65.1134 71.3262 65.7154 72.7797 65.7154 74.2952Z" stroke="white" stroke-linecap="round" stroke-linejoin="round"/>
</svg>
