<svg width="40" height="40" viewBox="0 0 40 40" fill="none" xmlns="http://www.w3.org/2000/svg">
<circle cx="20" cy="20" r="20" fill="#ddd"/>
<path d="M23.5717 25.7167H27.1431V24.2881C27.1431 23.8428 27.0043 23.4085 26.7461 23.0457C26.4879 22.6829 26.123 22.4095 25.7022 22.2636C25.2815 22.1177 24.8257 22.1066 24.3983 22.2317C23.9709 22.3568 23.5931 22.6119 23.3174 22.9617M23.5717 25.7167L23.3174 22.9617M23.5717 25.7167H16.4289M23.5717 25.7167V24.2881C23.5717 23.8195 23.4817 23.3717 23.3174 22.9617M23.3174 22.9617C23.0522 22.2988 22.5944 21.7306 22.0031 21.3303C21.4119 20.9301 20.7143 20.7162 20.0003 20.7162C19.2863 20.7162 18.5887 20.9301 17.9974 21.3303C17.4062 21.7306 16.9484 22.2988 16.6831 22.9617M16.4289 25.7167H12.8574V24.2881C12.8575 23.8428 12.9962 23.4085 13.2545 23.0457C13.5127 22.6829 13.8776 22.4095 14.2983 22.2636C14.7191 22.1177 15.1748 22.1066 15.6022 22.2317C16.0296 22.3568 16.4074 22.6119 16.6831 22.9617M16.4289 25.7167L16.6831 22.9617M16.4289 25.7167V24.2881C16.4289 23.8195 16.5189 23.3717 16.6831 22.9617M22.1431 16.4309C22.1431 16.9993 21.9174 17.5443 21.5155 17.9462C21.1136 18.348 20.5686 18.5738 20.0003 18.5738C19.432 18.5738 18.8869 18.348 18.485 17.9462C18.0832 17.5443 17.8574 16.9993 17.8574 16.4309C17.8574 15.8626 18.0832 15.3176 18.485 14.9157C18.8869 14.5139 19.432 14.2881 20.0003 14.2881C20.5686 14.2881 21.1136 14.5139 21.5155 14.9157C21.9174 15.3176 22.1431 15.8626 22.1431 16.4309ZM26.4288 18.5738C26.4288 18.9527 26.2783 19.316 26.0104 19.584C25.7425 19.8519 25.3792 20.0024 25.0003 20.0024C24.6214 20.0024 24.258 19.8519 23.9901 19.584C23.7222 19.316 23.5717 18.9527 23.5717 18.5738C23.5717 18.1949 23.7222 17.8316 23.9901 17.5636C24.258 17.2957 24.6214 17.1452 25.0003 17.1452C25.3792 17.1452 25.7425 17.2957 26.0104 17.5636C26.2783 17.8316 26.4288 18.1949 26.4288 18.5738ZM16.4289 18.5738C16.4289 18.9527 16.2783 19.316 16.0104 19.584C15.7425 19.8519 15.3792 20.0024 15.0003 20.0024C14.6214 20.0024 14.258 19.8519 13.9901 19.584C13.7222 19.316 13.5717 18.9527 13.5717 18.5738C13.5717 18.1949 13.7222 17.8316 13.9901 17.5636C14.258 17.2957 14.6214 17.1452 15.0003 17.1452C15.3792 17.1452 15.7425 17.2957 16.0104 17.5636C16.2783 17.8316 16.4289 18.1949 16.4289 18.5738Z" stroke="white" stroke-linecap="round" stroke-linejoin="round"/>
</svg>
